<?xml version="1.0" encoding="utf-8"?>
<!-- Generator: Adobe Illustrator 27.0.1, SVG Export Plug-In . SVG Version: 6.00 Build 0)  -->
<svg version="1.1" id="Layer_1" xmlns="http://www.w3.org/2000/svg" xmlns:xlink="http://www.w3.org/1999/xlink" x="0px" y="0px"
	 viewBox="0 0 2033.3 469.51" style="enable-background:new 0 0 2033.3 469.51;" xml:space="preserve">
<style type="text/css">
	.st0{fill:#FFFFFF;}
</style>
<g>
	<g>
		<path class="st0" d="M387.88,254c-6.47,0-12.09,0-18.1,0c0-78.18,0-156.23,0-234.72c5.58,0,11.32,0,17.76,0c0,6.16,0,12.54,0,19.3
			c3.58,0.18,6.51,0.32,10.11,0.5c0,9.47,0,18.85,0,28.49c3.58,0.19,6.51,0.35,9.93,0.54c0,9.42,0,18.68,0,28.43
			c3.52,0.2,6.57,0.38,10.1,0.59c0,13.18,0,26.1,0,39.37c3.71,0,6.92,0,10.64,0c0-13.13,0-26.05,0-39.37
			c3.41-0.17,6.34-0.31,9.94-0.49c0-9.44,0-18.83,0-28.46c3.25-0.21,5.84-0.37,8.92-0.57c0-9.39,0-18.65,0-28.46
			c3.51-0.18,6.56-0.34,10.1-0.52c0-6.52,0-12.78,0-19.39c6.56,0,12.63,0,19.09,0c0,78.05,0,156.11,0,234.57c-5.97,0-12.04,0-18.8,0
			c0-52.21,0-104.57,0-157.25c-3.75,0-6.84,0-10.63,0c0,12.97,0,26.01,0,39.35c-3.25,0.2-5.85,0.37-8.94,0.56
			c0,12.68,0,25.27,0,38.46c-3.5,0.18-6.55,0.33-10.08,0.51c0,3.14,0,6.07,0,9.38c-3.22,0-5.97,0-9.31,0
			c-0.13-2.9-0.27-5.96-0.43-9.34c-3.21-0.17-6.14-0.32-9.74-0.51c0-12.83,0-25.54,0-38.48c-3.59-0.19-6.51-0.35-9.93-0.54
			c0-9.79,0-19.38,0-29.34c-3.71,0-6.91,0-10.63,0C387.88,155.63,387.88,204.54,387.88,254z"/>
		<path class="st0" d="M260.8,19.15c0,6.68,0,12.81,0,19.45c3.22,0.15,6.14,0.28,9.74,0.44c0,12.75,0,25.46,0,38.49
			c3.24,0.21,5.83,0.37,9.1,0.58c0,6.1,0,12.16,0,18.46c3.58,0.19,6.51,0.35,9.93,0.54c0,9.76,0,19.35,0,29.33
			c3.71,0,6.91,0,10.64,0c0-9.65,0-19.23,0-29.27c3.52-0.21,6.58-0.39,10.11-0.6c0-6.2,0-12.13,0-18.44c3.4-0.17,6.34-0.32,9.93-0.5
			c0-12.78,0-25.5,0-38.49c3.58-0.19,6.51-0.35,9.93-0.53c0-6.42,0-12.67,0-19.34c6.22,0,11.96,0,18.13,0c0,78.04,0,156.21,0,234.66
			c-5.87,0-11.61,0-17.84,0c0-52.49,0-104.72,0-157.34c-3.7,0-6.9,0-10.63,0c0,13.07,0,25.99,0,39.35c-3.4,0.16-6.34,0.3-9.94,0.48
			c0,12.75,0,25.47,0,38.51c-3.57,0.18-6.5,0.34-9.91,0.51c0,3.06,0,5.97,0,9.33c-3.34,0-6.2,0-9.37,0
			c-0.16-3.02-0.31-5.95-0.48-9.32c-3.09-0.14-6.02-0.28-9.62-0.44c0-12.78,0-25.5,0-38.48c-3.24-0.21-5.84-0.37-8.93-0.57
			c0-9.71,0-19.29,0-29.31c-3.71,0-6.91,0-10.63,0c0,48.9,0,97.8,0,147.13c-6.55,0-12.62,0-19.14,0c0-77.99,0-156.15,0-234.62
			C247.98,19.15,254.04,19.15,260.8,19.15z"/>
		<path class="st0" d="M692.39,254c-6.3,0-12.25,0-18.89,0c0-6.47,0-12.86,0-19.51c-3.59-0.19-6.52-0.35-9.94-0.54
			c0-9.75,0-19.33,0-29.46c-3.18-0.19-5.9-0.35-9.09-0.54c0-6.18,0-12.11,0-18.49c-3.4-0.16-6.32-0.29-9.93-0.45
			c0-6.44,0-12.82,0-19.51c-3.58-0.19-6.51-0.35-9.93-0.53c0-16.05,0-31.97,0-48.32c-3.7,0-6.91,0-10.63,0c0,45.56,0,91.13,0,137.13
			c-6.55,0-12.62,0-19.14,0c0-77.99,0-156.16,0-234.63c6.16,0,12.23,0,18.81,0c0,12.79,0,25.37,0,38.45
			c3.39,0.15,6.32,0.28,9.93,0.44c0,9.76,0,19.47,0,29.53c3.58,0.18,6.51,0.33,10.1,0.51c0,12.82,0,25.53,0,38.49
			c3.59,0.19,6.51,0.35,9.93,0.54c0,9.44,0,18.69,0,28.42c3.18,0.21,5.9,0.4,9.1,0.61c0,9.85,0,19.43,0,29.36c3.59,0,6.68,0,10.45,0
			c0-55.25,0-110.61,0-166.31c6.74,0,12.81,0,19.23,0C692.39,97.32,692.39,175.38,692.39,254z"/>
		<path class="st0" d="M1248.48,136.55c-3.55-0.23-6.39-0.41-9.76-0.62c0-10.69,0-21.16,0-32.05c-4.05,0-7.56,0-11.62,0
			c0,49.95,0,99.75,0,149.95c-7.17,0-13.8,0-20.86,0c0-77.97,0-155.98,0-234.44c6.5,0,13.14,0,20.53,0c0,6.4,0,13.01,0,20
			c3.92,0.2,7.11,0.36,11.04,0.56c0,10.73,0,21.35,0,32.19c3.55,0.23,6.39,0.41,9.76,0.62c0,6.66,0,13.13,0,20.12
			c3.84,0.23,7.18,0.43,11.04,0.66c0,14.41,0,28.53,0,43.11c3.72,0.18,6.91,0.33,10.85,0.51c0,13.97,0,27.86,0,42.06
			c4.12,0,7.49,0,11.62,0c0-53.26,0-106.47,0-159.98c7.01,0,13.27,0,19.87,0c0,78.26,0,156.26,0,234.63c-6.44,0-12.7,0-19.54,0
			c0-6.93,0-13.76,0-21.15c-3.85-0.22-7.18-0.41-11.04-0.64c0-7.11,0-13.95,0-21.28c-3.71-0.17-6.91-0.32-10.85-0.5
			c0-10.32,0-20.57,0-31.15c-3.91-0.21-7.11-0.38-11.03-0.59C1248.48,164.54,1248.48,150.65,1248.48,136.55z"/>
		<path class="st0" d="M133.29,38.89c3.65,0,6.45,0,9.84,0c0.16-3.34,0.31-6.39,0.47-9.77c3.2-0.17,6.13-0.32,9.55-0.49
			c0-3.06,0-5.97,0-9.33c12.89,0,25.29,0,38.35,0c0.14,2.8,0.29,5.85,0.47,9.33c3.13,0.14,6.07,0.28,9.54,0.44
			c0.16,3.13,0.31,6.19,0.47,9.53c3.23,0.17,6.16,0.33,9.59,0.51c0,6.07,0,11.99,0,18.44c3.52,0.2,6.57,0.37,9.89,0.56
			c0,52.01,0,103.73,0,155.86c-3.08,0.15-6.01,0.3-9.42,0.47c-0.18,3.16-0.36,6.21-0.56,9.53c-3.21,0.17-6.14,0.33-9.56,0.51
			c0,6.44,0,12.7,0,19.47c-3.52,0.18-6.58,0.33-9.91,0.5c-0.17,3.23-0.33,6.16-0.5,9.42c-12.58,0-24.99,0-37.88,0
			c-0.13-2.95-0.27-5.87-0.43-9.4c-3.1-0.15-6.15-0.3-9.7-0.47c0-6.52,0-12.77,0-19.53c-3.4-0.15-6.32-0.28-9.84-0.44
			c-0.15-3.08-0.31-6.13-0.48-9.56c-3.17-0.16-6.1-0.3-9.4-0.46c0-51.86,0-103.59,0-155.89c2.93-0.15,5.98-0.31,9.52-0.5
			C133.29,51.41,133.29,45.48,133.29,38.89z M162.96,38.46c-0.18,3.17-0.33,5.77-0.48,8.51c-3.35,0.18-6.27,0.33-9.85,0.52
			c0,6.66,0,13.04,0,19.5c-3.59,0.17-6.52,0.31-9.53,0.46c0,45.96,0,91.48,0,137.16c3.27,0.18,6.2,0.33,9.77,0.52
			c0,6.66,0,13.05,0,19.49c3.59,0.18,6.52,0.33,9.62,0.48c0.18,3.32,0.33,6.25,0.5,9.41c6.51,0,12.72,0,19.18,0
			c0.17-3.37,0.33-6.42,0.48-9.48c3.54-0.16,6.46-0.29,9.85-0.44c0-6.76,0-13.02,0-19.52c3.53-0.18,6.58-0.33,9.43-0.48
			c0-46.13,0-91.64,0-137.21c-3.38-0.16-6.3-0.29-9.69-0.45c0-6.74,0-13,0-19.51c-3.53-0.17-6.58-0.32-9.64-0.47
			c-0.18-3.18-0.33-5.77-0.49-8.5C175.56,38.46,169.47,38.46,162.96,38.46z"/>
		<path class="st0" d="M918.4,234.13c-3.17,0-5.97,0-9.38,0c-0.17,3.33-0.32,6.39-0.5,9.83c-3.14,0.15-6.07,0.3-9.49,0.46
			c-0.19,3.14-0.37,6.2-0.56,9.51c-16.03,0-31.76,0-47.83,0c-0.16-3.15-0.32-6.08-0.5-9.49c-3.08,0-6,0-9.48,0
			c-0.17-3.51-0.32-6.57-0.49-9.96c-3.2-0.17-6.13-0.32-9.42-0.49c0-9.54,0-18.94,0-28.74c6.03,0,12.1,0,18.86,0
			c0,6.28,0,12.67,0,19.32c3.59,0.19,6.51,0.35,9.87,0.53c0.15,3.08,0.29,6.01,0.46,9.35c9.63,0,19.18,0,29.21,0
			c0.14-2.94,0.27-5.86,0.43-9.31c3.12-0.18,6.17-0.35,9.55-0.54c0-26.03,0-51.79,0-77.96c-3.28,0-6.48,0-10.14,0
			c-0.15,2.59-0.3,5.18-0.48,8.17c-12.48,0-24.88,0-37.89,0c-0.15-2.55-0.3-5.27-0.49-8.47c-6.51,0-12.77,0-19.39,0
			c0-42.56,0-84.62,0-127.08c6.01,0,12.08,0,18.84,0c0,35.59,0,71.29,0,107.32c3.58,0.19,6.5,0.34,9.89,0.52
			c0.14,3.05,0.28,5.98,0.44,9.34c6.27,0,12.49,0,19.22,0c0-2.9,0-5.81,0-9.29c3.52-0.17,6.57-0.32,9.98-0.49
			c0.16-3.19,0.31-6.12,0.48-9.54c3.04-0.14,5.96-0.28,9.56-0.45c0-32.41,0-64.78,0-97.47c6.74,0,12.8,0,19.22,0
			C918.4,90.68,918.4,162.06,918.4,234.13z"/>
		<path class="st0" d="M1442.23,19.16c17.44,0,34.51,0,52.14,0c0.19,3.06,0.38,6.03,0.59,9.53c7.14,0,13.98,0,21.29,0
			c0.17,3.71,0.32,6.92,0.49,10.69c3.41,0.19,6.75,0.38,10.62,0.61c0,7.11,0,13.95,0,21.25c3.35,0.19,6.18,0.36,9.46,0.55
			c0,17.26,0,34.46,0,52.33c-2.74,0.16-5.72,0.33-9.22,0.53c0,7.1,0,13.94,0,21.33c-11,0-21.47,0-32.44,0c0,3.69,0,6.83,0,10.56
			c3.09,0.14,6.28,0.28,10.14,0.45c0.17,3.36,0.34,6.7,0.52,10.46c3.46,0.17,6.66,0.32,10.39,0.5c0.19,3.44,0.38,6.78,0.58,10.41
			c3.53,0.19,6.73,0.36,10.4,0.55c0.15,3.38,0.3,6.58,0.47,10.37c3.06,0.18,6.04,0.36,9.3,0.55c0,24.8,0,49.28,0,74.09
			c-6.51,0-12.78,0-19.61,0c0-21.22,0-42.26,0-63.85c-3.71-0.17-6.9-0.31-10.77-0.49c-0.17-3.35-0.34-6.69-0.53-10.46
			c-3.45-0.16-6.65-0.32-10.39-0.49c-0.19-3.44-0.37-6.78-0.57-10.41c-3.53-0.19-6.73-0.36-10.4-0.55
			c-0.15-3.37-0.29-6.57-0.46-10.38c-3.06-0.17-6.04-0.34-9.33-0.53c-0.19-3.5-0.36-6.7-0.55-10.28c-3.69,0-7.2,0-11.27,0
			c0,35.82,0,71.42,0,107.4c-7.18,0-13.81,0-20.85,0C1442.23,175.79,1442.23,97.78,1442.23,19.16z M1516.89,115.06
			c0-18.51,0-36.09,0-53.97c-3.65-0.19-6.98-0.36-10.38-0.53c-0.17-3.81-0.32-7-0.49-10.71c-7.32,0-14.16,0-21.27,0
			c-0.23-3.85-0.42-7.18-0.62-10.55c-7.22,0-13.87,0-20.79,0c0,28.93,0,57.55,0,86.29c10.8,0,21.22,0,31.78,0
			c0.19-3.61,0.36-6.81,0.56-10.53C1502.87,115.06,1509.71,115.06,1516.89,115.06z"/>
		<path class="st0" d="M1903.31,19.16c21.09,0,41.79,0,63.1,0c0.18,3.02,0.35,6,0.56,9.49c7.12,0,13.96,0,21.35,0
			c0,7.36,0,14.19,0,21.65c3.84,0.19,7.17,0.36,10.81,0.54c0,17.51,0,34.69,0,52.32c-3.34,0.17-6.54,0.34-10.47,0.54
			c0,7.05,0,14.03,0,21.3c-3.91,0.21-7.11,0.37-10.78,0.57c-0.16,3.38-0.31,6.58-0.49,10.53c-7.05,0-14.02,0-21.3,0
			c0,3.75,0,6.76,0,10.53c6.99,0,13.96,0,21.23,0c0.21,3.92,0.37,7.12,0.57,10.81c3.37,0.15,6.57,0.3,10.39,0.47
			c0.17,3.41,0.33,6.74,0.52,10.42c3.51,0.19,6.71,0.36,10.29,0.55c0,28.29,0,56.4,0,84.94c-6.61,0-13.24,0-20.62,0
			c0-24.72,0-49.53,0-74.66c-3.91-0.21-7.11-0.38-10.8-0.58c-0.15-3.35-0.3-6.55-0.47-10.39c-3.4-0.16-6.73-0.32-10.43-0.5
			c-0.18-3.5-0.34-6.69-0.52-10.38c-2.97-0.18-5.8-0.35-9.31-0.56c-0.16-3.31-0.32-6.65-0.5-10.32c-7.31,0-14.33,0-22.1,0
			c0,35.65,0,71.37,0,107.45c-7.36,0-13.99,0-21.01,0C1903.31,175.77,1903.31,97.77,1903.31,19.16z M1967.13,39.34
			c-14.62,0-28.55,0-42.64,0c0,28.97,0,57.59,0,86.22c10.84,0,21.27,0,31.77,0c0.18-3.65,0.33-6.85,0.49-10.21
			c3.68-0.19,6.87-0.36,10.4-0.55c0.18-3.65,0.35-6.99,0.52-10.41c3.78-0.18,6.97-0.33,10.24-0.49c0-18.19,0-35.9,0-53.74
			c-3.61-0.19-6.81-0.36-10.23-0.55C1967.49,46.05,1967.31,42.85,1967.13,39.34z"/>
		<path class="st0" d="M515.68,204.57c3.56,0.19,6.49,0.35,9.91,0.54c0,6.44,0,12.69,0,19.34c10.04,0,19.58,0,29.63,0
			c0-6.33,0-12.58,0-19.28c3.53-0.21,6.58-0.4,10.09-0.61c0-61.86,0-123.43,0-185.35c6.54,0,12.61,0,19.06,0
			c0,64.74,0,129.46,0,194.72c-2.94,0.17-6,0.34-9.53,0.54c0,6.51,0,12.77,0,19.48c-3.39,0.15-6.33,0.29-9.85,0.45
			c-0.15,3.1-0.29,6.16-0.46,9.54c-3.19,0.16-6.12,0.32-9.56,0.49c-0.13,3.03-0.26,5.96-0.41,9.33c-9.25,0-18.44,0-27.94,0
			c-0.16-3.03-0.31-5.96-0.49-9.32c-3.1-0.14-6.02-0.27-9.51-0.43c-0.15-3.12-0.31-6.18-0.47-9.54c-3.22-0.17-6.14-0.33-9.57-0.51
			c0-6.39,0-12.64,0-19.47c-3.51-0.18-6.57-0.33-9.89-0.5c0-65.01,0-129.73,0-194.79c6.18,0,12.25,0,18.99,0
			C515.68,80.94,515.68,142.62,515.68,204.57z"/>
		<path class="st0" d="M1324.22,19.18c17.4,0,34.46,0,52.15,0c0.17,2.98,0.34,5.96,0.52,9.31c3.48,0.17,6.68,0.34,10.42,0.52
			c0.15,3.32,0.3,6.51,0.49,10.45c6.99,0,13.97,0,21.35,0c0.18,3.91,0.34,7.11,0.51,10.86c3.08,0.19,6.06,0.38,9.3,0.58
			c0,53.2,0,106.07,0,159.32c-3.04,0.19-5.88,0.37-9.25,0.58c0,6.93,0,13.78,0,21.27c-3.83,0.19-7.16,0.36-10.94,0.56
			c-0.17,3.44-0.32,6.64-0.51,10.58c-7.06,0-14.04,0-21.3,0c-0.21,3.92-0.38,7.11-0.58,10.66c-17.4,0-34.59,0-52.17,0
			C1324.22,175.8,1324.22,97.81,1324.22,19.18z M1398.88,210.95c0-50.07,0-99.81,0-149.86c-3.65-0.19-6.99-0.36-10.38-0.53
			c-0.17-3.82-0.32-7.01-0.48-10.72c-7.33,0-14.17,0-21.28,0c-0.22-3.86-0.42-7.19-0.61-10.53c-7.24,0-13.88,0-20.81,0
			c0,64.62,0,128.9,0,193.38c10.77,0,21.2,0,31.79,0c0.19-3.59,0.36-6.79,0.55-10.29c3.67-0.18,7.01-0.34,10.41-0.51
			c0.18-3.82,0.32-7.02,0.48-10.39C1392.22,211.31,1395.41,211.14,1398.88,210.95z"/>
		<path class="st0" d="M1654.89,254c-6.5,0-12.63,0-19.52,0c0-21.24,0-42.4,0-63.89c-18.32,0-35.89,0-54.21,0
			c0,21.16,0,42.32,0,63.8c-7.37,0-14,0-20.98,0c0-46.15,0-92.1,0-138.55c3.28-0.16,6.48-0.31,10.41-0.51c0-17.59,0-35.12,0-52.98
			c3.9-0.21,7.1-0.38,10.84-0.58c0-6.97,0-13.81,0-21.27c3.84-0.19,7.18-0.36,10.93-0.55c0.16-3.46,0.32-6.67,0.49-10.4
			c3.08-0.18,6.06-0.36,9.32-0.56c0.18-3.17,0.35-6,0.53-9.19c3.2,0,6.19,0,9.69,0c0.16,2.84,0.32,5.68,0.52,9.19
			c3.33,0.16,6.67,0.32,10.42,0.49c0.17,3.46,0.33,6.66,0.52,10.38c3.44,0.21,6.78,0.4,10.64,0.64c0,7.13,0,13.96,0,21.26
			c3.72,0.18,6.91,0.33,10.83,0.51c0,17.62,0,35.15,0,52.97c3.54,0.22,6.37,0.4,9.58,0.61
			C1654.89,161.47,1654.89,207.42,1654.89,254z M1581.27,168.28c18.24,0,35.81,0,53.57,0c0-18.05,0-35.74,0-53.64
			c-3.57-0.19-6.77-0.36-10.66-0.57c0-17.82,0-35.34,0-52.97c-3.91-0.21-7.11-0.38-10.58-0.57c-0.18-3.69-0.35-7.02-0.51-10.28
			c-4.05,0-7.43,0-11.11,0c-0.18,3.66-0.35,6.99-0.51,10.35c-3.46,0.2-6.29,0.36-9.62,0.55c0,17.84,0,35.22,0,52.91
			c-3.84,0.23-7.16,0.43-10.59,0.64C1581.27,132.8,1581.27,150.36,1581.27,168.28z"/>
		<path class="st0" d="M1163.05,19.16c7.06,0,13.2,0,19.77,0c0,67.21,0,134.29,0,202.03c-2.79,0.16-5.77,0.33-9.12,0.51
			c-0.17,3.48-0.33,6.68-0.52,10.42c-3.32,0.15-6.51,0.3-10.39,0.48c-0.17,3.35-0.34,6.69-0.53,10.45
			c-3.43,0.17-6.63,0.32-10.37,0.5c-0.2,3.44-0.4,6.78-0.61,10.39c-10.23,0-20.14,0-30.4,0c-0.19-3.45-0.36-6.65-0.56-10.39
			c-7,0-13.84,0-21.42,0c0-7.49,0-14.47,0-21.77c-3.92-0.21-7.11-0.38-10.69-0.57c0-67.26,0-134.34,0-201.85c6.6,0,13.23,0,20.6,0
			c0,63.68,0,127.45,0,191.57c3.9,0.21,7.1,0.37,10.8,0.57c0.16,3.34,0.31,6.54,0.49,10.21c10.5,0,20.93,0,31.93,0
			c0-3.16,0-6.35,0-10.16c3.84-0.19,7.18-0.36,11.03-0.56C1163.05,147.04,1163.05,83.41,1163.05,19.16z"/>
		<path class="st0" d="M15.73,57.93c3.17,0,5.97,0,9.44,0c0-6.34,0-12.39,0-18.8c3.58-0.18,6.51-0.32,9.93-0.49
			c0.18-3.15,0.36-6.21,0.55-9.53c3.2-0.17,6.13-0.32,9.5-0.5c0.14-3.1,0.28-6.02,0.43-9.35c12.5,0,24.91,0,37.91,0
			c0.14,2.88,0.3,5.94,0.46,9.34c3.2,0.16,6.12,0.31,9.54,0.48c0.14,3.04,0.27,5.97,0.43,9.51c3.07,0.15,6.13,0.3,9.49,0.47
			c0,18.99,0,37.72,0,56.8c-6.17,0-12.24,0-18.82,0c0-15.96,0-31.87,0-48.37c-3.51-0.18-6.56-0.33-9.91-0.5
			c-0.18-2.85-0.34-5.45-0.53-8.41c-6.33,0-12.55,0-19.12,0c-0.17,2.7-0.34,5.3-0.54,8.38c-3,0.14-5.93,0.27-9.54,0.44
			c0,6.4,0,12.79,0,19.52c-3.58,0.19-6.51,0.34-9.82,0.51c0,48.99,0,97.85,0,147.19c2.97,0.14,5.89,0.27,9.37,0.44
			c0.16,3.13,0.31,6.18,0.47,9.53c3.22,0.17,6.15,0.33,9.52,0.51c0.15,3.07,0.29,6,0.45,9.34c6.28,0,12.5,0,19.21,0
			c0.13-2.92,0.27-5.84,0.42-9.33c3.11-0.16,6.16-0.32,9.7-0.5c0-9.52,0-18.78,0-28.39c6.56,0,12.63,0,19.08,0
			c0,12.4,0,24.8,0,37.75c-2.97,0.15-6.03,0.31-9.36,0.47c-0.17,3.24-0.33,6.17-0.51,9.53c-3.08,0.14-6.01,0.28-9.47,0.44
			c-0.18,3.12-0.35,6.18-0.54,9.5c-12.68,0-25.08,0-37.85,0c-0.16-3.1-0.31-6.03-0.49-9.47c-3.04-0.13-5.96-0.26-9.5-0.42
			c-0.16-3.07-0.31-6.12-0.48-9.57c-3.15-0.15-6.08-0.29-9.54-0.45c-0.16-3.14-0.31-6.19-0.48-9.53c-3.24-0.17-6.17-0.33-9.42-0.5
			C15.73,168.72,15.73,113.67,15.73,57.93z"/>
		<path class="st0" d="M1773.39,115.36c0,3.76,0,6.81,0,10.38c3.53,0.16,6.73,0.3,10.56,0.47c0.17,3.39,0.33,6.73,0.51,10.44
			c3.5,0.18,6.7,0.34,10.38,0.52c0.18,2.97,0.35,5.81,0.56,9.32c3.32,0.16,6.66,0.32,10.33,0.49c0,28.41,0,56.53,0,85.14
			c-3.3,0.16-6.5,0.31-10.26,0.48c-0.19,3.42-0.38,6.76-0.59,10.42c-3.49,0.18-6.69,0.35-10.39,0.54c-0.15,3.37-0.3,6.57-0.46,10.21
			c-13.66,0-27.21,0-41.43,0c-0.16-3.13-0.32-6.47-0.51-10.2c-3.48-0.17-6.69-0.33-10.42-0.52c-0.15-3.31-0.3-6.51-0.48-10.4
			c-3.35-0.17-6.69-0.34-10.36-0.52c0-10.18,0-20.09,0-30.38c6.75,0,13.39,0,20.59,0c0,6.54,0,13,0,20.08
			c3.85,0.19,7.18,0.36,10.84,0.54c0.19,3.51,0.36,6.71,0.55,10.29c6.97,0,13.76,0,20.92,0c0.18-3.39,0.35-6.58,0.55-10.26
			c3.36-0.16,6.56-0.32,10.21-0.49c0-21.45,0-42.81,0-64.7c-3.2-0.15-6.39-0.29-10.17-0.46c-0.19-3.41-0.38-6.74-0.6-10.61
			c-6.75,0-13.23,0-20.26,0c0-7,0-13.47,0-20.56c-3.85-0.19-7.18-0.36-10.85-0.54c-0.18-3.5-0.35-6.7-0.54-10.43
			c-3.35,0-6.54,0-10.36,0c-0.19-3.84-0.35-7.17-0.54-10.91c-3.48-0.18-6.68-0.34-10.28-0.52c0-20.99,0-41.82,0-63.26
			c3.25-0.17,6.59-0.34,10.23-0.52c0.19-3.54,0.36-6.74,0.55-10.42c3.37-0.15,6.57-0.29,10.38-0.46c0.18-3.06,0.35-6.04,0.54-9.3
			c13.87,0,27.42,0,41.34,0c0.19,3.04,0.37,5.88,0.58,9.25c6.95,0,13.79,0,21.11,0c0,14.44,0,28.36,0,42.77c-6.53,0-13.29,0-20.62,0
			c0-10.58,0-21.05,0-31.9c-10.99,0-21.42,0-32.17,0c-0.18,3.44-0.36,6.64-0.55,10.26c-3.39,0.17-6.6,0.34-10.22,0.52
			c0,14.19,0,28.27,0,42.82c3.27,0.16,6.46,0.31,10.2,0.49c0.19,3.44,0.37,6.78,0.57,10.41c3.52,0.19,6.73,0.36,10.4,0.55
			c0.15,3.38,0.29,6.58,0.46,10.38C1766.74,114.98,1769.71,115.15,1773.39,115.36z"/>
		<path class="st0" d="M742.58,38.33c0-6.82,0-12.77,0-19.09c25.57,0,50.97,0,76.76,0c0,6,0,12.07,0,18.84c-9.25,0-18.62,0-28.47,0
			c0,72.25,0,143.81,0,215.75c-6.55,0-12.62,0-19.36,0c0-71.63,0-143.31,0-215.5C761.61,38.33,752.36,38.33,742.58,38.33z"/>
		<path class="st0" d="M1829.02,19.15c17.46,0,34.53,0,52.02,0c0,6.41,0,12.68,0,19.72c-10.51,0-21.12,0-32.03,0
			c0,29.26,0,57.76,0,87.02c10.66,0,21.27,0,32.15,0c0,7.02,0,13.29,0,20.12c-10.76,0-21.24,0-32.09,0c0,29.06,0,57.57,0,86.83
			c10.46,0,21.07,0,32.03,0c0,7.38,0,14.01,0,21.02c-17.3,0-34.49,0-52.08,0C1829.02,175.78,1829.02,97.76,1829.02,19.15z"/>
		<path class="st0" d="M1012.8,19.2c21,0,41.69,0,62.88,0c0,6.38,0,12.77,0,19.73c-13.85,0-27.6,0-41.73,0c0,29.17,0,57.8,0,86.98
			c10.31,0,20.41,0,30.9,0c0,6.81,0,13.08,0,19.91c-10.1,0-20.21,0-31.04,0c0,36.26,0,71.98,0,108.06c-7.35,0-13.98,0-21.01,0
			C1012.8,175.81,1012.8,97.83,1012.8,19.2z"/>
		<path class="st0" d="M731.42,253.99c-6.31,0-12.25,0-18.61,0c0-78.22,0-156.37,0-234.82c6.16,0,12.22,0,18.61,0
			C731.42,97.36,731.42,175.38,731.42,253.99z"/>
		<path class="st0" d="M1678.23,19.2c6.8,0,13.29,0,20.28,0c0,78.1,0,156.2,0,234.67c-6.63,0-13.26,0-20.28,0
			C1678.23,175.81,1678.23,97.83,1678.23,19.2z"/>
		<path class="st0" d="M63.82,408.83c0,9.64,0,19.28,0,29.45c-3.07,0.18-5.79,0.33-8.84,0.51c-0.15,3.2-0.29,6.12-0.45,9.4
			c-2.9,0-5.64,0-9.02,0c0-42.29,0-84.63,0-127.46c-6.86,0-13.1,0-19.73,0c0-3.23,0-5.97,0-9.12c15.6,0,31.33,0,47.51,0
			c0,2.66,0,5.51,0,8.87c-5.97,0-11.89,0-18.17,0c0,29.68,0,58.86,0,88.51c3.02,0,5.94,0,8.87,0
			C63.99,408.99,63.82,408.83,63.82,408.83z"/>
		<path class="st0" d="M132.82,399.83c0,9.3,0,18.6,0,28.45c-3.38,0.17-6.44,0.33-9.94,0.51c0,6.51,0,12.76,0,19.38
			c-2.88,0-5.28,0-8.32,0c0-19.23,0-38.57,0-58.35c-3.52-0.16-6.43-0.3-10-0.46c0-13.09,0-26.12,0-39.59c-3.9,0-7.15,0-10.41,0
			c0,0,0.16,0.16,0.16,0.16c0-5.97,0-11.94,0-18.42c3.4-0.19,6.44-0.36,9.95-0.56c0-6.5,0-12.74,0-19.36c3.21,0,5.95,0,9.31,0
			c0,22.57,0,45.23,0,68.32c3.16,0.18,5.75,0.33,9,0.52c0,6.38,0,12.76,0,19.57c3.91,0,7.17,0,10.43,0
			C132.99,399.99,132.82,399.83,132.82,399.83z"/>
		<path class="st0" d="M634.12,438.75c-2.98,0-5.96,0-9.34,0c0-29.54,0-58.59,0-88.28c2.84-0.15,5.89-0.31,9.42-0.5
			c0-6.13,0-12.05,0-18.5c3.51-0.18,6.56-0.33,9.92-0.5c0.17-3.22,0.32-6.15,0.5-9.53c3.06-0.14,5.99-0.27,9.51-0.43
			c0.15-3.1,0.3-6.15,0.46-9.49c6.02,0,11.75,0,17.89,0c0.15,3.22,0.3,6.32,0.45,9.43c0,0,0.19-0.13,0.19-0.13
			c-3.39,0-6.78,0-10.2,0c-0.16,3.57-0.3,6.49-0.43,9.5c-3.08,0.19-5.67,0.35-8.54,0.53c-0.16,3.34-0.31,6.4-0.46,9.51
			c-3.47,0.16-6.39,0.3-9.94,0.46c0,6.44,0,12.48,0,18.55c-3.58,0.16-6.5,0.29-9.55,0.43c0,26.71,0,52.93,0,79.15L634.12,438.75z"/>
		<path class="st0" d="M241,380c3.28,0,6.55,0,10.12,0c0.17-3.27,0.33-6.2,0.51-9.57c3.07-0.14,5.99-0.27,9.5-0.43
			c0.15-3.1,0.3-6.15,0.46-9.49c9.34,0,18.4,0,27.8,0c0,12.84,0,25.56,0,38.8c-2.91,0.14-5.83,0.27-9.41,0.44
			c0,9.39,0,18.76,0,28.55c-3.4,0.15-6.16,0.27-8.93,0.39l0.16,0.16c0-12.62,0-25.25,0-38.35c3.18-0.2,5.89-0.37,8.87-0.56
			c0-6.71,0-13.13,0-19.97c-2.92,0-5.79,0-9.13,0c-0.14,2.94-0.27,5.86-0.43,9.34c-3.12,0.15-6.17,0.3-9.54,0.47
			c-0.17,3.21-0.32,6.13-0.5,9.53c-3.04,0.14-5.97,0.27-9.51,0.43c-0.15,3.08-0.3,6.13-0.46,9.55c-3.32,0.16-6.43,0.31-9.53,0.46
			l0.13,0.19c0-6.71,0-13.42,0-20.13L241,380z"/>
		<path class="st0" d="M153.23,349.85c0-9.47,0-18.94,0-29.08c-6.46,0-12.84,0-19.52,0c0-3.41,0-6.15,0-9.23
			c22.47,0,44.85,0,67.63,0c0,2.7,0,5.44,0,8.85c-9.55,0-19.25,0-29.34,0c-0.17,3.56-0.31,6.48-0.47,9.87
			c-2.8,0.19-5.53,0.37-8.71,0.58c0,6.18,0,12.1,0,18.85c-3.56,0-6.66,0-9.76,0L153.23,349.85z"/>
		<path class="st0" d="M692.94,399.81c0,9.28,0,18.56,0,28.46c-3.43,0.17-6.47,0.32-9.96,0.5c-0.14,3.11-0.27,6.03-0.42,9.53
			c-3.09,0.15-6.14,0.3-9.57,0.46c-0.15,3.17-0.29,6.09-0.45,9.39c-12.59,0-25.08,0-37.88,0c-0.18-3.21-0.36-6.31-0.53-9.41
			c0,0-0.13,0.19-0.13,0.19c9.72,0,19.43,0,29.19,0c0.17-3.53,0.3-6.45,0.45-9.51c3.38-0.18,6.3-0.33,9.52-0.5
			c0.17-3.34,0.32-6.39,0.48-9.52c3.44-0.17,6.36-0.31,9.91-0.48c0-6.41,0-12.45,0-18.52c3.63-0.18,6.61-0.33,9.58-0.48
			L692.94,399.81z"/>
		<path class="st0" d="M369.03,438.72c-2.97,0-5.93,0-9.27,0c0-19.62,0-38.75,0-58.27c3.17-0.15,6.26-0.29,9.36-0.44l-0.13-0.19
			c0,3.27,0,6.55,0,10.13c9.92,0,19.53,0,29.13,0l-0.19-0.13c0,2.98,0,5.95,0,9.59c-6.49,0-12.53,0-18.88,0
			c-0.2,3.22-0.37,5.8-0.56,8.86c-3.1,0.18-6.15,0.36-9.62,0.57c0,10.2,0,20.12,0,30.04L369.03,438.72z"/>
		<path class="st0" d="M241,399.75c-0.15,2.65-0.31,5.3-0.49,8.56c-3.04,0.14-6.09,0.29-9.62,0.45c0,6.51,0,12.77,0,19.46
			c-3.06,0.19-5.65,0.36-8.91,0.57c0,6.35,0,12.73,0,19.42c-3.4,0-6.14,0-9.24,0c0-12.78,0-25.52,0-38.77
			c2.9-0.14,5.83-0.27,9.43-0.44c0-9.4,0-18.78,0-28.5c3.42-0.19,6.19-0.35,8.96-0.5l-0.13-0.19c0,6.61,0,13.21,0,20.13
			c3.59,0,6.86,0,10.13,0L241,399.75z"/>
		<path class="st0" d="M721.82,418.83c0,6.6,0,13.2,0,20.24c20.09,0,39.66,0,59.24,0l-0.16-0.16c0,2.97,0,5.93,0,9.27
			c-22.96,0-45.42,0-68.2,0c0-9.49,0-18.86,0-28.69c3.11-0.17,6.19-0.34,9.28-0.5C721.99,418.99,721.82,418.83,721.82,418.83z"/>
		<path class="st0" d="M535.82,418.83c0,6.6,0,13.21,0,20.24c20.09,0,39.67,0,59.24,0l-0.16-0.16c0,2.97,0,5.93,0,9.27
			c-22.96,0-45.42,0-68.2,0c0-9.49,0-18.86,0-28.69c3.11-0.17,6.19-0.34,9.28-0.5C535.99,418.99,535.82,418.83,535.82,418.83z"/>
		<path class="st0" d="M781.3,359.92c0-9.59,0-19.17,0-29.11c-3.34-0.17-6.26-0.32-9.62-0.49c-0.19-3.15-0.38-6.19-0.59-9.64
			c-9.87,0-19.45,0-29.03,0l0.16,0.16c0-2.97,0-5.95,0-9.28c12.91,0,25.31,0,38.27,0c0.15,2.97,0.3,6.02,0.47,9.37
			c3.22,0.17,6.15,0.33,9.41,0.5c0,12.56,0,24.96,0,37.83c-3.06,0.16-6.15,0.33-9.24,0.5C781.14,359.77,781.3,359.92,781.3,359.92z"
			/>
		<path class="st0" d="M330.3,369.92c0-3.15,0-6.31,0-10.12c-9.83,0-19.53,0-29.57,0c0-3.39,0-6.13,0-9.53c9.69,0,19.4,0,29.35,0
			c0.2-3.22,0.35-5.81,0.56-9.21c2.9,0,5.66,0,8.42,0l-0.16-0.16c0,2.81,0,5.63,0,9.08c9.77,0,19.46,0,29.49,0c0,3.36,0,6.1,0,9.48
			c-9.68,0-19.37,0-29.4,0c-0.16,3.53-0.3,6.45-0.45,9.79c-2.89,0.18-5.64,0.35-8.4,0.51C330.14,369.77,330.3,369.92,330.3,369.92z"
			/>
		<path class="st0" d="M869.82,438.83c0,2.98,0,5.96,0,9.33c-16.44,0-32.49,0-49.19,0c-0.14-2.85-0.28-5.9-0.45-9.34
			c-2.81-0.16-5.4-0.31-8.39-0.48c0-6.14,0-12.2,0-18.71c2.36,0,4.87,0,7.72,0c0.15,3.01,0.3,5.94,0.47,9.33
			c3.08,0.14,6,0.27,9.51,0.42c0.16,3.1,0.31,6.15,0.48,9.6c13.52,0,26.77,0,40.02,0C869.99,438.99,869.82,438.83,869.82,438.83z"/>
		<path class="st0" d="M438.22,408.85c0-12.91,0-25.81,0-39.04c-3.3-0.16-6.22-0.31-9.48-0.47c0-2.91,0-5.65,0-8.76
			c5.69,0,11.42,0,17.82,0c0,6.24,0,12.61,0,19.41c3.9,0,7.16,0,10.42,0c0,0-0.16-0.16-0.16-0.16c0,2.98,0,5.96,0,9.42
			c-3.41,0.2-6.46,0.37-9.99,0.58c0,6.18,0,12.11,0,18.47c-3.24,0.14-6,0.26-8.77,0.39L438.22,408.85z"/>
		<path class="st0" d="M693,341c2.98,0,5.96,0,9.33,0c0,19.64,0,38.79,0,58.27c-3.19,0.18-6.3,0.36-9.4,0.54
			c0,0,0.19,0.13,0.19,0.13c0-19.71,0-39.42,0-59.13L693,341z"/>
		<path class="st0" d="M438.06,408.68c0,9.94,0,19.88,0,30.25c2.69,0.15,5.27,0.3,8.26,0.46c0,2.93,0,5.78,0,8.89
			c-9.24,0-18.3,0-27.65,0c0-3,0-5.73,0-8.83c3.09-0.16,6.02-0.32,9.6-0.51c0-9.79,0-19.5,0-29.42c3.74-0.26,6.84-0.47,9.95-0.68
			C438.22,408.85,438.06,408.68,438.06,408.68z"/>
		<path class="st0" d="M870.04,379.71c-12.96,0-25.92,0-39.26,0c0-3.22,0-5.96,0-9.37c9.58,0,19.28,0,29.35,0
			c0.17-3.55,0.31-6.48,0.47-9.85c3.2-0.17,6.3-0.34,9.39-0.51c0,0-0.16-0.16-0.16-0.16c0.02,6.68,0.03,13.36,0.05,20.04
			C869.87,379.87,870.04,379.71,870.04,379.71z"/>
		<path class="st0" d="M319.9,408.91c0,9.89,0,19.77,0,30.08c3.59,0,6.83,0,10.08,0c0,0-0.16-0.16-0.16-0.16c0,2.98,0,5.95,0,9.32
			c-6.54,0-12.71,0-19.16,0c0-12.87,0-25.57,0-39.08c3.22,0,6.31,0,9.4,0L319.9,408.91z"/>
		<path class="st0" d="M191.9,438.9c0,2.97,0,5.93,0,9.27c-6.53,0-12.59,0-19.08,0c0-12.68,0-25.48,0-39.1c3.06,0,6.15,0,9.24,0
			l-0.16-0.16c0,9.9,0,19.8,0,30.16c3.64,0,6.9,0,10.16,0L191.9,438.9z"/>
		<path class="st0" d="M368.87,438.88c6.24,0,12.48,0,19.23,0c0.18-3.04,0.35-6.08,0.56-9.81c6.62,0,13.01,0,19.39,0l-0.16-0.16
			c0,2.96,0,5.93,0,9.37c-3.5,0.19-6.54,0.35-9.9,0.53c-0.16,3.18-0.31,6.1-0.48,9.38c-9.16,0-18.2,0-27.75,0
			c-0.23-3.02-0.48-6.24-0.73-9.46C369.03,438.72,368.87,438.88,368.87,438.88z"/>
		<path class="st0" d="M379.19,369.94c0-2.98,0-5.95,0-9.33c12.97,0,25.47,0,38.26,0c0,6.19,0,12.24,0,18.69
			c-3.25,0.15-6.35,0.3-9.45,0.45l0.13,0.19c0-3.27,0-6.55,0-10.13c-9.92,0-19.53,0-29.13,0L379.19,369.94z"/>
		<path class="st0" d="M879.04,320.71c-16.3,0.02-32.6,0.04-48.9,0.06c0,0,0.16,0.16,0.16,0.16c0-2.97,0-5.95,0-9.32
			c16.16,0,31.96,0,48.57,0c0,3.09,0,6.18,0,9.27L879.04,320.71z"/>
		<path class="st0" d="M467.23,369.85c0-2.97,0-5.95,0-9.28c6.59,0,12.66,0,19.12,0c0,9.37,0,18.77,0,28.58c-2.64,0-5.38,0-8.81,0
			c0-6.22,0-12.6,0-19.46c-3.93,0-7.21,0-10.48,0L467.23,369.85z"/>
		<path class="st0" d="M555.3,320.92c0-2.97,0-5.94,0-9.31c13.14,0,25.93,0,39.16,0c0.16,3.03,0.33,6.11,0.49,9.19
			c0,0,0.16-0.16,0.16-0.16c-13.32,0.04-26.65,0.09-39.97,0.13C555.14,320.77,555.3,320.92,555.3,320.92z"/>
		<path class="st0" d="M320.06,409.07c0-12.68,0-25.36,0-38.51c3.8-0.24,7.01-0.44,10.24-0.64c0,0-0.16-0.16-0.16-0.16
			c-0.13,10.79-0.27,21.59-0.4,32.38c-0.02,1.95,0,3.9,0,6.08c-3.63,0.25-6.73,0.46-9.83,0.68
			C319.9,408.91,320.06,409.07,320.06,409.07z"/>
		<path class="st0" d="M879.23,428.85c-0.02-12.96-0.04-25.93-0.05-38.89c0,0-0.16,0.16-0.16,0.16c2.97,0,5.94,0,9.32,0
			c0,12.82,0,25.29,0,38.57c-3.09,0-6.18,0-9.27,0L879.23,428.85z"/>
		<path class="st0" d="M672.94,320.94c6.42,0,12.84,0,20.07,0c0,7.23,0,13.65,0,20.07c0,0,0.13-0.19,0.13-0.19
			c-3.08-0.17-6.16-0.35-9.5-0.53c-0.18-3.31-0.34-6.34-0.5-9.49c-3.37-0.17-6.28-0.31-9.46-0.47c-0.19-3.35-0.36-6.42-0.53-9.5
			L672.94,320.94z"/>
		<path class="st0" d="M192.3,379.92c0-3.16,0-6.31,0-10.13c-3.17-0.14-6.23-0.28-9.59-0.43c0-2.99,0-5.73,0-8.82
			c6.14,0,12.21,0,18.66,0c0,6.11,0,12.17,0,18.73c-3.04,0.16-6.14,0.33-9.23,0.49C192.14,379.77,192.3,379.92,192.3,379.92z"/>
		<path class="st0" d="M142.82,369.83c0,9.62,0,19.24,0,29.37c-3.53,0.22-6.76,0.42-10,0.62c0,0,0.16,0.16,0.16,0.16
			c0-9.7,0-19.39,0-29.47c3.85-0.2,6.93-0.37,10-0.53C142.99,369.99,142.82,369.83,142.82,369.83z"/>
		<path class="st0" d="M878.88,320.87c3.1,0.2,6.21,0.4,9.58,0.62c0,9.28,0,18.33,0,28.19c-3.2,0-6.29,0-9.39,0l0.16,0.16
			c-0.06-9.71-0.12-19.42-0.18-29.13C879.04,320.71,878.88,320.87,878.88,320.87z"/>
		<path class="st0" d="M545.9,330.91c0,9.27,0,18.54,0,28.23c-3.28,0-6.12,0-9.24,0c0-9.17,0-18.21,0-28.06c3.22,0,6.31,0,9.4,0
			L545.9,330.91z"/>
		<path class="st0" d="M731.82,330.83c0,9.28,0,18.56,0,28.28c-3.15,0-5.99,0-9.14,0c0-9.1,0-18.13,0-27.62
			c3.14-0.17,6.22-0.34,9.3-0.5C731.99,330.99,731.82,330.83,731.82,330.83z"/>
		<path class="st0" d="M182.06,409.07c0-9.36,0-18.71,0-28.5c3.81-0.24,7.02-0.44,10.24-0.64c0,0-0.16-0.16-0.16-0.16
			c0,9.41,0,18.83,0,28.44c-4.03,0.28-7.13,0.49-10.24,0.7C181.9,408.91,182.06,409.07,182.06,409.07z"/>
		<path class="st0" d="M231.13,380c0-3.27,0-6.55,0-10.17c-2.8-0.17-5.38-0.33-8.35-0.51c0-2.82,0-5.55,0-8.71
			c5.71,0,11.55,0,18.22,0c0,6.55,0,12.97,0,19.39c0,0,0.13-0.19,0.13-0.19c-3.38,0-6.76,0-10.13,0L231.13,380z"/>
		<path class="st0" d="M74.23,389.85c0-6.35,0-12.7,0-19.78c3.72,0,6.78,0,9.84,0l-0.16-0.16c0,6.35,0,12.7,0,19.78
			c-3.72,0-6.78,0-9.84,0L74.23,389.85z"/>
		<path class="st0" d="M339.06,341.07c0-6.41,0-12.81,0-19.54c3.49,0,6.21,0,9.31,0c0,6.05,0,12.09,0,18.65
			c-3.04,0.23-6.26,0.48-9.47,0.72C338.9,340.91,339.06,341.07,339.06,341.07z"/>
		<path class="st0" d="M781.06,439.07c0-6.41,0-12.81,0-19.54c3.49,0,6.21,0,9.31,0c0,6.05,0,12.09,0,18.65
			c-3.04,0.23-6.26,0.48-9.47,0.72C780.9,438.9,781.06,439.07,781.06,439.07z"/>
		<path class="st0" d="M271.06,428.68c0,6.41,0,12.81,0,19.54c-3.49,0-6.21,0-9.31,0c0-6.05,0-12.09,0-18.65
			c3.04-0.23,6.26-0.48,9.47-0.72C271.23,428.85,271.06,428.68,271.06,428.68z"/>
		<path class="st0" d="M84.06,370.07c0-6.37,0-12.73,0-19.5c3.83-0.24,7.03-0.44,10.24-0.64c0,0-0.16-0.16-0.16-0.16
			c0,6.42,0,12.83,0,19.44c-4.04,0.28-7.14,0.49-10.24,0.7C83.9,369.91,84.06,370.07,84.06,370.07z"/>
		<path class="st0" d="M153.06,349.68c0,6.37,0,12.73,0,19.5c-3.83,0.24-7.03,0.44-10.24,0.64c0,0,0.16,0.16,0.16,0.16
			c0-6.42,0-12.83,0-19.44c4.04-0.28,7.14-0.49,10.24-0.7C153.23,349.85,153.06,349.68,153.06,349.68z"/>
		<path class="st0" d="M74.06,389.68c0,6.03,0,12.07,0,18.5c-3.83,0.24-7.03,0.44-10.24,0.64c0,0,0.16,0.16,0.16,0.16
			c0-6.08,0-12.17,0-18.44c4.04-0.28,7.14-0.49,10.24-0.7C74.23,389.85,74.06,389.68,74.06,389.68z"/>
		<path class="st0" d="M211.48,349.36c-3.16,0-5.78,0-8.74,0c0-5.9,0-11.61,0-17.74c2.79,0,5.63,0,8.74,0
			C211.48,337.49,211.48,343.2,211.48,349.36z"/>
		<path class="st0" d="M595.07,439.07c0-6.41,0-12.81,0-19.54c3.15,0,5.55,0,8.31,0c0,6.04,0,12.09,0,18.62
			c-2.71,0.24-5.59,0.49-8.47,0.75C594.9,438.91,595.07,439.07,595.07,439.07z"/>
		<path class="st0" d="M819.9,330.9c0,5.94,0,11.88,0,18.23c-2.95,0-5.46,0-8.24,0c0-5.84,0-11.55,0-17.7
			c2.9-0.13,5.65-0.25,8.4-0.37L819.9,330.9z"/>
		<path class="st0" d="M595.3,359.92c0-6.03,0-12.05,0-18.42c3.23-0.19,5.95-0.35,8.68-0.52c0,0-0.16-0.16-0.16-0.16
			c0,6.03,0,12.05,0,18.42c-3.23,0.19-5.95,0.35-8.68,0.52C595.14,359.77,595.3,359.92,595.3,359.92z"/>
		<path class="st0" d="M369.13,380c0.17-3.09,0.34-6.18,0.53-9.54c3.35-0.19,6.45-0.36,9.54-0.53c0,0-0.19-0.13-0.19-0.13
			c-0.17,3.07-0.34,6.14-0.52,9.48c-3.33,0.18-6.41,0.35-9.48,0.52L369.13,380z"/>
		<path class="st0" d="M467.07,369.69c-0.19,3.06-0.37,6.11-0.59,9.57c-3.28,0.19-6.47,0.38-9.65,0.57c0,0,0.16,0.16,0.16,0.16
			c0.23-3.09,0.47-6.18,0.72-9.5c3.33-0.22,6.42-0.43,9.52-0.64C467.23,369.85,467.07,369.69,467.07,369.69z"/>
		<path class="st0" d="M555.23,399.85c0-3.04,0-6.08,0-9.78c3.75,0,6.79,0,9.84,0l-0.16-0.16c0,3.04,0,6.08,0,9.78
			c-3.75,0-6.79,0-9.83,0L555.23,399.85z"/>
		<path class="st0" d="M771.23,369.85c0-2.95,0-5.9,0-9.29c3.63-0.23,6.85-0.43,10.08-0.63c0,0-0.16-0.16-0.16-0.16
			c-0.23,3.07-0.46,6.13-0.75,9.92c-3.19,0-6.26,0-9.33,0L771.23,369.85z"/>
		<path class="st0" d="M585.3,369.92c0-2.97,0-5.94,0-9.38c3.54-0.22,6.77-0.42,10-0.62c0,0-0.16-0.16-0.16-0.16
			c-0.23,3.06-0.46,6.11-0.72,9.54c-3.17,0.16-6.22,0.31-9.28,0.46C585.14,369.77,585.3,369.92,585.3,369.92z"/>
		<path class="st0" d="M575.3,379.92c0-2.97,0-5.94,0-9.38c3.54-0.22,6.77-0.42,10-0.62c0,0-0.16-0.16-0.16-0.16
			c-0.23,3.06-0.46,6.11-0.72,9.54c-3.17,0.16-6.22,0.31-9.28,0.46C575.14,379.77,575.3,379.92,575.3,379.92z"/>
		<path class="st0" d="M192.06,439.07c0.19-3.09,0.38-6.18,0.59-9.56c2.92,0,5.64,0,8.73,0c0,2.75,0,5.48,0,8.7
			c-3.06,0.22-6.27,0.46-9.48,0.69C191.9,438.9,192.06,439.07,192.06,439.07z"/>
		<path class="st0" d="M751.9,389.9c0,2.97,0,5.94,0,9.33c-3.57,0.19-6.66,0.36-9.76,0.53c0,0,0.16,0.16,0.16,0.16
			c0-3.06,0-6.11,0-9.86c3.65,0,6.7,0,9.76,0L751.9,389.9z"/>
		<path class="st0" d="M408.06,429.07c0.19-3.09,0.38-6.18,0.59-9.56c2.92,0,5.64,0,8.73,0c0,2.75,0,5.48,0,8.7
			c-3.06,0.22-6.27,0.46-9.48,0.69C407.9,428.9,408.06,429.07,408.06,429.07z"/>
		<path class="st0" d="M604.09,331.04c2.96,0,5.93,0,9.27,0c0,3.2,0,5.94,0,9.2c-3.07,0.19-6.3,0.39-9.53,0.59
			c0,0,0.16,0.16,0.16,0.16c0.09-3.37,0.18-6.74,0.27-10.11C604.25,330.88,604.09,331.04,604.09,331.04z"/>
		<path class="st0" d="M339.23,428.85c0-2.95,0-5.91,0-9.25c3.29,0,6.13,0,9.25,0c0,2.88,0,5.6,0,9.09c-3.24,0-6.33,0-9.41,0
			L339.23,428.85z"/>
		<path class="st0" d="M731.9,408.9c0,2.95,0,5.9,0,9.3c-3.63,0.23-6.85,0.43-10.07,0.63c0,0,0.16,0.16,0.16,0.16
			c0.23-3.07,0.46-6.13,0.75-9.92c3.19,0,6.26,0,9.33,0L731.9,408.9z"/>
		<path class="st0" d="M545.82,408.83c0,2.97,0,5.94,0,9.38c-3.54,0.22-6.77,0.42-10,0.62c0,0,0.16,0.16,0.16,0.16
			c0.23-3.06,0.46-6.11,0.72-9.54c3.17-0.16,6.22-0.31,9.28-0.46C545.99,408.98,545.82,408.83,545.82,408.83z"/>
		<path class="st0" d="M820.06,331.07c0.19-3.06,0.37-6.11,0.59-9.57c3.28-0.19,6.47-0.38,9.65-0.57c0,0-0.16-0.16-0.16-0.16
			c-0.23,3.09-0.47,6.18-0.72,9.5c-3.33,0.22-6.42,0.43-9.52,0.64C819.9,330.9,820.06,331.07,820.06,331.07z"/>
		<path class="st0" d="M742.07,320.69c-0.19,3.06-0.37,6.11-0.59,9.57c-3.28,0.19-6.47,0.38-9.65,0.57c0,0,0.16,0.16,0.16,0.16
			c0.23-3.09,0.46-6.18,0.72-9.5c3.33-0.22,6.42-0.43,9.52-0.64C742.23,320.85,742.07,320.69,742.07,320.69z"/>
		<path class="st0" d="M565.06,390.07c0.19-3.06,0.37-6.11,0.59-9.57c3.28-0.19,6.47-0.38,9.65-0.57c0,0-0.16-0.16-0.16-0.16
			c-0.23,3.09-0.46,6.18-0.72,9.5c-3.33,0.22-6.42,0.43-9.52,0.64C564.9,389.9,565.06,390.07,565.06,390.07z"/>
		<path class="st0" d="M752.06,390.07c0.19-3.08,0.38-6.16,0.59-9.61c3.21-0.16,6.27-0.32,9.34-0.47c0,0-0.16-0.16-0.16-0.16
			c0,2.96,0,5.92,0,9.34c-3.5,0.26-6.71,0.49-9.92,0.73C751.9,389.9,752.06,390.07,752.06,390.07z"/>
		<path class="st0" d="M408,379.75c-0.17,3.09-0.34,6.19-0.53,9.54c-3.35,0.19-6.45,0.36-9.54,0.53c0,0,0.19,0.13,0.19,0.13
			c0.17-3.07,0.34-6.14,0.52-9.48c3.33-0.18,6.41-0.35,9.48-0.52C408.13,379.94,408,379.75,408,379.75z"/>
		<path class="st0" d="M879.06,428.68c-0.19,3.05-0.37,6.11-0.58,9.54c-2.94,0.2-5.8,0.4-8.65,0.6c0,0,0.16,0.16,0.16,0.16
			c0.23-3.09,0.46-6.18,0.71-9.47c2.99-0.23,5.76-0.45,8.53-0.67C879.23,428.85,879.06,428.68,879.06,428.68z"/>
		<path class="st0" d="M879.06,349.68c-0.19,3.05-0.37,6.11-0.58,9.54c-2.94,0.2-5.8,0.4-8.65,0.6c0,0,0.16,0.16,0.16,0.16
			c0.23-3.09,0.46-6.18,0.71-9.47c2.99-0.23,5.76-0.45,8.53-0.67C879.23,349.85,879.06,349.68,879.06,349.68z"/>
		<path class="st0" d="M771.06,369.68c-0.19,3.05-0.37,6.11-0.58,9.54c-2.94,0.2-5.8,0.4-8.65,0.6c0,0,0.16,0.16,0.16,0.16
			c0.23-3.09,0.46-6.18,0.71-9.47c2.99-0.23,5.76-0.45,8.53-0.67C771.23,369.85,771.06,369.68,771.06,369.68z"/>
		<path class="st0" d="M339.06,428.68c-0.19,3.05-0.37,6.11-0.58,9.54c-2.94,0.2-5.8,0.4-8.65,0.6c0,0,0.16,0.16,0.16,0.16
			c0.23-3.09,0.46-6.18,0.71-9.47c2.99-0.23,5.76-0.45,8.53-0.67C339.23,428.85,339.06,428.68,339.06,428.68z"/>
		<path class="st0" d="M604.25,330.88c-2.73-0.19-5.45-0.38-8.58-0.59c-0.19-3.28-0.38-6.46-0.56-9.65c0,0-0.16,0.16-0.16,0.16
			c2.76,0.24,5.52,0.48,8.5,0.74c0.22,3.3,0.42,6.4,0.63,9.5C604.09,331.04,604.25,330.88,604.25,330.88z"/>
		<path class="st0" d="M546.06,331.07c0.19-3.05,0.37-6.11,0.58-9.54c2.94-0.2,5.8-0.4,8.65-0.6c0,0-0.16-0.16-0.16-0.16
			c-0.23,3.09-0.46,6.18-0.71,9.47c-2.99,0.23-5.76,0.45-8.53,0.67C545.9,330.91,546.06,331.07,546.06,331.07z"/>
		<path class="st0" d="M869.87,379.87c2.73,0.19,5.45,0.38,8.58,0.59c0.19,3.28,0.38,6.46,0.56,9.65c0,0,0.16-0.16,0.16-0.16
			c-2.76-0.24-5.52-0.48-8.5-0.74c-0.22-3.3-0.42-6.4-0.63-9.5C870.04,379.71,869.87,379.87,869.87,379.87z"/>
		<path class="st0" d="M732.06,409.07c0.19-2.73,0.38-5.46,0.59-8.58c3.28-0.19,6.46-0.38,9.65-0.56c0,0-0.16-0.16-0.16-0.16
			c-0.24,2.76-0.48,5.52-0.74,8.5c-3.3,0.22-6.4,0.42-9.5,0.63C731.9,408.9,732.06,409.07,732.06,409.07z"/>
		<path class="st0" d="M555.07,399.69c-0.19,2.73-0.37,5.45-0.58,8.55c-2.95,0.2-5.8,0.4-8.66,0.59c0,0,0.16,0.16,0.16,0.16
			c0.24-2.76,0.48-5.52,0.73-8.47c2.97-0.23,5.74-0.44,8.51-0.66C555.23,399.85,555.07,399.69,555.07,399.69z"/>
		<path class="st0" d="M181.55,97.14c0,26.15,0,51.73,0,77.69c-5.9,0-11.63,0-17.77,0c0-25.76,0-51.58,0-77.69
			C169.66,97.14,175.39,97.14,181.55,97.14z"/>
	</g>
</g>
</svg>
