<?xml version="1.0" encoding="utf-8"?>
<!-- Generator: Adobe Illustrator 26.3.1, SVG Export Plug-In . SVG Version: 6.00 Build 0)  -->
<svg version="1.1" id="Layer_1" xmlns="http://www.w3.org/2000/svg" xmlns:xlink="http://www.w3.org/1999/xlink" x="0px" y="0px"
	 viewBox="0 0 1080 1080" style="enable-background:new 0 0 1080 1080;" xml:space="preserve">
<style type="text/css">
	.st0{fill:#FFFFFF;}
</style>
<g>
	<g>
		<path class="st0" d="M29.47,1050.51c0-9.94,0-19.88,0-30.02c-3.06-0.19-5.65-0.36-8.58-0.54c-0.16-3.13-0.31-6.06-0.49-9.47
			c-3.05,0-5.97,0-9.33,0c0-3.34,0-6.19,0-9.56c9.35,0,18.6,0,28.2,0c0-307.64,0-614.77,0-922.41c-9.25,0-18.5,0-28.19,0
			c0-3.35,0-6.2,0-9.39c2.99-0.15,5.92-0.31,9.33-0.48c0-3.08,0-6,0-9.48c3.17-0.18,5.9-0.34,9.09-0.52c0-10.2,0-20.14,0-30.09
			l-0.16,0.16c9.81,0,19.62,0,30.03,0c0.16-2.82,0.32-5.54,0.49-8.58c3.18-0.16,6.11-0.31,9.52-0.49c0-3.05,0-5.97,0-9.33
			c3.34,0,6.19,0,9.56,0c0,9.35,0,18.6,0,28.2c307.64,0,614.77,0,922.41,0c0-9.25,0-18.5,0-28.19c3.35,0,6.2,0,9.39,0
			c0.15,2.98,0.31,5.92,0.48,9.33c3.08,0,6,0,9.48,0c0.18,3.17,0.34,5.9,0.52,9.09c10.2,0,20.14,0,30.09,0l-0.16-0.16
			c0,9.81,0,19.62,0,30.03c2.82,0.16,5.53,0.32,8.58,0.49c0.16,3.18,0.31,6.11,0.49,9.52c3.05,0,5.97,0,9.33,0c0,3.34,0,6.19,0,9.56
			c-9.35,0-18.6,0-28.2,0c0,307.64,0,614.77,0,922.41c9.25,0,18.5,0,28.19,0c0,3.35,0,6.21,0,9.39c-2.99,0.15-5.92,0.31-9.33,0.48
			c0,3.08,0,6,0,9.48c-3.17,0.18-5.9,0.34-9.09,0.52c0,10.2,0,20.14,0,30.09l0.16-0.16c-9.81,0-19.62,0-30.03,0
			c-0.16,2.82-0.32,5.54-0.49,8.58c-3.18,0.16-6.11,0.31-9.52,0.49c0,3.05,0,5.97,0,9.33c-3.34,0-6.19,0-9.56,0
			c0-9.35,0-18.6,0-28.2c-307.64,0-614.77,0-922.41,0c0,9.25,0,18.5,0,28.19c-3.35,0-6.21,0-9.39,0c-0.15-2.99-0.31-5.92-0.48-9.33
			c-3.08,0-6,0-9.48,0c-0.18-3.17-0.34-5.9-0.52-9.09c-10.2,0-20.14,0-30.08,0L29.47,1050.51z M1031.34,1020.61
			c0-321.03,0-641.43,0-962.13c-3.33-0.19-6.38-0.37-9.51-0.55c-0.16-3.43-0.3-6.36-0.44-9.34c-320.99,0-641.51,0-962.18,0
			c-0.18,3.3-0.34,6.23-0.51,9.41c-3.37,0.17-6.43,0.33-9.43,0.48c0,321.02,0,641.42,0,962.12c3.32,0.19,6.38,0.37,9.51,0.55
			c0.16,3.43,0.3,6.36,0.44,9.34c320.99,0,641.51,0,962.18,0c0.18-3.3,0.34-6.23,0.5-9.37
			C1025.16,1020.94,1028.09,1020.78,1031.34,1020.61z"/>
		<path class="st0" d="M1051.12,1050.54c6.08,0,12.16,0,18.55,0c0,6.51,0,12.22,0,18.3c-5.75,0-11.46,0-18.38,0
			c0-6.07,0-12.27,0-18.46C1051.28,1050.38,1051.12,1050.54,1051.12,1050.54z"/>
		<path class="st0" d="M29.5,28.54c-6.08,0-12.16,0-18.55,0c0-6.51,0-12.22,0-18.3c5.75,0,11.46,0,18.38,0c0,6.07,0,12.27,0,18.46
			C29.33,28.7,29.5,28.54,29.5,28.54z"/>
		<path class="st0" d="M29.31,1050.35c0,6.08,0,12.16,0,18.54c-6.51,0-12.22,0-18.3,0c0-5.75,0-11.46,0-18.38
			c6.07,0,12.27,0,18.46,0C29.47,1050.51,29.31,1050.35,29.31,1050.35z"/>
		<path class="st0" d="M1051.31,28.73c0-6.08,0-12.16,0-18.54c6.51,0,12.22,0,18.3,0c0,5.75,0,11.46,0,18.38
			c-6.07,0-12.27,0-18.46,0C1051.14,28.56,1051.31,28.73,1051.31,28.73z"/>
		<path class="st0" d="M226.36,244.55c0.19-2.92,0.35-5.51,0.55-8.6c9.47,0,18.72,0,28.34,0c0-7.05,0-13.59,0-20.48
			c-3.07-0.16-6-0.32-9.37-0.5c-0.15-3.06-0.29-6-0.46-9.6c-9.42,0-18.81,0-28.5,0c-0.19-3.58-0.35-6.51-0.54-9.93
			c-9.39,0-18.65,0-28.46,0c-0.18-3.18-0.34-5.9-0.52-9.1c-9.84,0-19.43,0-29.5,0c-0.16-3.39-0.3-6.32-0.47-9.93
			c-9.41,0-18.79,0-28.51,0c-0.19-3.58-0.35-6.51-0.53-9.94c-6.36,0-12.62,0-19.47,0c-0.18-3.51-0.33-6.56-0.51-10.02
			c-3.15-0.15-6.08-0.29-9.53-0.45c-0.16-3.14-0.31-6.2-0.48-9.53c-3.24-0.17-6.17-0.33-9.42-0.51c0-9.26,0-18.33,0-27.88
			c2.97-0.13,5.9-0.27,9.41-0.43c0.15-3.11,0.3-6.17,0.46-9.54c3.2-0.17,6.13-0.32,9.55-0.5c0-3.06,0-5.98,0-9.59
			c9.85,0,19.23,0,28.96,0c0.18-3.58,0.33-6.51,0.5-9.8c42.21,0,84.28,0,126.85,0c0.18,2.97,0.36,6.03,0.57,9.56
			c6.53,0,12.79,0,19.38,0c0,16.24,0,31.98,0,48.06c-2.8,0-5.55,0-8.78,0c-0.13-2.91-0.26-5.85-0.42-9.39
			c-3.08-0.15-6.14-0.31-9.54-0.48c-0.17-2.82-0.32-5.42-0.51-8.5c-3.13-0.18-6.19-0.36-9.52-0.55c-0.17-3.21-0.32-6.14-0.5-9.5
			c-3.1-0.14-6.03-0.28-9.47-0.44c-0.18-3.13-0.36-6.18-0.55-9.51c-36.05,0-71.81,0-108.13,0c-0.16,3.07-0.31,6.12-0.48,9.42
			c-2.89,0.18-5.49,0.35-8.42,0.53c0,6.38,0,12.59,0,19.32c9.48,0,18.73,0,28.39,0c0.17,3.41,0.32,6.34,0.5,9.95
			c6.44,0,12.84,0,19.49,0c0.19,3.58,0.35,6.51,0.53,9.93c9.42,0,18.68,0,28.44,0c0.2,3.52,0.37,6.57,0.58,10.1
			c9.85,0,19.44,0,29.46,0c0.17,3.41,0.31,6.34,0.48,9.94c9.43,0,18.82,0,28.5,0c0.19,3.58,0.35,6.51,0.54,9.93
			c6.39,0,12.65,0,19.47,0c0.18,3.18,0.33,5.9,0.51,8.96c3.19,0.17,6.12,0.32,9.41,0.49c0,9.54,0,18.95,0,28.88
			c-2.87,0.14-5.79,0.28-9.37,0.45c-0.15,3.05-0.31,6.1-0.48,9.55c-3.12,0.16-6.06,0.31-9.66,0.49c0,6.11,0,12.17,0,18.72
			c-6.92,0-13.18,0-19.86,0c-0.16,3.41-0.3,6.33-0.46,9.65c-45.18,0-90.25,0-135.91,0c-0.15-2.89-0.31-5.95-0.49-9.49
			c-9.86,0-19.45,0-29.39,0c0-16.24,0-31.97,0-48.09c2.72,0,5.47,0,8.75,0c0.15,2.95,0.3,6.01,0.47,9.36
			c3.23,0.17,6.16,0.33,9.52,0.51c0.15,3.07,0.29,6.01,0.47,9.61c6.43,0,12.82,0,19.49,0c0.19,3.58,0.35,6.51,0.53,9.93
			c6.07,0,11.99,0,18.47,0c0.18,3.18,0.34,5.9,0.52,8.91C173.59,244.55,199.68,244.55,226.36,244.55z"/>
		<path class="st0" d="M560.32,107.47c-3.22-0.17-6.15-0.33-9.43-0.51c-0.16-3.13-0.31-6.06-0.48-9.47c-3.04,0-5.96,0-9.33,0
			c0-3.34,0-6.19,0-9.34c58.48,0,116.87,0,175.64,0c0.16,3.09,0.32,6.02,0.5,9.45c6.02,0,11.94,0,18.48,0
			c0.18,3.51,0.33,6.56,0.51,10.03c3.14,0.15,6.07,0.28,9.54,0.44c0.16,3.14,0.31,6.19,0.48,9.53c3.23,0.17,6.16,0.33,9.42,0.5
			c0,22.58,0,44.98,0,67.88c-2.94,0-5.86,0-9.37,0c-0.18,3.18-0.33,5.89-0.51,9.11c-6.16,0-12.08,0-18.46,0
			c-0.21,3.52-0.4,6.57-0.61,10.1c-6.53,0-12.79,0-19.45,0c-0.17,3.4-0.31,6.33-0.48,9.92c-35.8,0-71.49,0-107.48,0
			c0,10.09,0,19.51,0,29.47c3.07,0.18,6.12,0.35,9.45,0.54c0.17,3.2,0.33,6.13,0.51,9.55c6.09,0,12.01,0,18.34,0
			c0,3.22,0,5.95,0,9.13c-28.58,0-57.31,0-86.49,0c0-2.64,0-5.5,0-8.69c2.98-0.15,5.91-0.31,9.32-0.48c0-3.08,0-6,0-9.48
			c3.51-0.18,6.56-0.33,9.91-0.5C560.32,198.81,560.32,153.27,560.32,107.47z M717.32,186.61c0-20.05,0-39.47,0-59.17
			c-3.35-0.17-6.4-0.32-9.91-0.5c0-3.49,0-6.41,0-9.48c-3.41-0.18-6.34-0.33-9.55-0.5c-0.17-3.35-0.33-6.39-0.48-9.45
			c-32.99,0-65.4,0-98.05,0c0,29.49,0,58.68,0,87.98c36.22,0,72.09,0,108.07,0c0.18-2.97,0.34-5.57,0.52-8.37
			C711.16,186.94,714.09,186.78,717.32,186.61z"/>
		<path class="st0" d="M373.31,176.6c32.75,0,65.17,0,98.09,0c0-3.07,0-5.99,0-9.32c3.35,0,6.2,0,9.32,0c0,15.78,0,31.4,0,47.47
			c-2.8,0-5.65,0-8.85,0c-0.15-2.96-0.3-5.89-0.48-9.31c-3.07,0-5.99,0-9.49,0c-0.18-3.51-0.33-6.56-0.5-9.92c-29.38,0-58.47,0-88,0
			c0,16.19,0,32.39,0,49.1c2.9,0.13,5.82,0.26,9.31,0.42c0.16,3.11,0.32,6.16,0.5,9.7c6.52,0,12.78,0,19.39,0c0,3.23,0,5.97,0,9.09
			c-29.05,0-58.12,0-87.59,0c0-2.67,0-5.41,0-8.76c2.89-0.13,5.94-0.27,9.34-0.43c0.17-3.21,0.32-6.14,0.49-9.54
			c3.05-0.14,5.98-0.28,9.34-0.44c0-45.61,0-91.15,0-137.23c-2.87-0.13-5.79-0.26-9.3-0.41c-0.15-3.08-0.3-6.14-0.47-9.59
			c-3.18-0.14-6.11-0.27-9.41-0.42c0-2.88,0-5.63,0-8.77c67.98,0,136.05,0,204.55,0c0,18.94,0,38.01,0,57.52c-2.33,0-4.85,0-7.69,0
			c-0.15-3-0.3-5.93-0.48-9.34c-3.09,0-6.01,0-9.48,0c-0.18-3.18-0.33-5.9-0.5-8.95c-3.19-0.16-6.12-0.32-9.54-0.49
			c-0.14-3.05-0.27-5.97-0.43-9.51c-3.09-0.15-6.14-0.3-9.54-0.47c-0.17-3.17-0.33-6.1-0.5-9.41c-36,0-71.88,0-108.09,0
			C373.31,130.48,373.31,153.24,373.31,176.6z"/>
		<path class="st0" d="M461.12,726.01c-6.47,0-12.09,0-18.1,0c0-78.18,0-156.23,0-234.72c5.58,0,11.32,0,17.76,0
			c0,6.16,0,12.54,0,19.3c3.58,0.18,6.51,0.32,10.11,0.5c0,9.47,0,18.85,0,28.49c3.58,0.19,6.51,0.35,9.93,0.54
			c0,9.42,0,18.68,0,28.43c3.52,0.2,6.57,0.38,10.1,0.59c0,13.18,0,26.1,0,39.37c3.71,0,6.92,0,10.64,0c0-13.13,0-26.05,0-39.37
			c3.41-0.17,6.34-0.31,9.94-0.49c0-9.44,0-18.83,0-28.46c3.25-0.21,5.84-0.37,8.92-0.57c0-9.39,0-18.65,0-28.46
			c3.51-0.18,6.56-0.34,10.1-0.52c0-6.52,0-12.78,0-19.39c6.56,0,12.63,0,19.09,0c0,78.05,0,156.11,0,234.57c-5.97,0-12.04,0-18.8,0
			c0-52.21,0-104.57,0-157.25c-3.75,0-6.84,0-10.63,0c0,12.97,0,26.01,0,39.35c-3.25,0.2-5.85,0.37-8.94,0.56
			c0,12.68,0,25.27,0,38.46c-3.5,0.18-6.55,0.33-10.08,0.51c0,3.14,0,6.07,0,9.38c-3.22,0-5.97,0-9.31,0
			c-0.13-2.9-0.27-5.96-0.43-9.34c-3.21-0.17-6.14-0.32-9.74-0.51c0-12.83,0-25.54,0-38.48c-3.59-0.19-6.51-0.35-9.93-0.54
			c0-9.79,0-19.38,0-29.34c-3.71,0-6.91,0-10.63,0C461.12,627.64,461.12,676.55,461.12,726.01z"/>
		<path class="st0" d="M972.83,226.09c6.41,0,12.37,0,18.73,0c0,9.12,0,18.19,0,27.96c-9.54,0-19.25,0-29.3,0
			c-0.19,3.58-0.34,6.51-0.51,9.8c-38.88,0-77.61,0-116.85,0c-0.18-2.98-0.36-6.03-0.57-9.56c-9.54,0-18.79,0-28.46,0
			c-0.16-3.41-0.3-6.33-0.46-9.82c-3.13-0.15-6.19-0.3-9.51-0.47c-0.18-2.89-0.34-5.49-0.53-8.54c-3.06-0.14-5.99-0.27-9.6-0.43
			c0-6.44,0-12.82,0-19.52c-3.58-0.19-6.51-0.35-9.78-0.52c0-25.89,0-51.62,0-77.88c2.88-0.13,5.81-0.26,9.37-0.42
			c0.16-2.73,0.31-5.45,0.49-8.57c3.13-0.15,6.06-0.29,9.5-0.45c0.18-3.14,0.35-6.19,0.54-9.54c3.2-0.17,6.13-0.32,9.51-0.5
			c0.14-3.09,0.27-6.01,0.43-9.51c3.12-0.15,6.18-0.3,9.54-0.47c0.17-3.21,0.33-6.14,0.51-9.57c6.05,0,11.97,0,18.47,0
			c0.18-3.52,0.33-6.56,0.5-9.9c39.02,0,77.75,0,116.88,0c0.16,3.06,0.31,5.99,0.5,9.59c9.8,0,19.51,0,29.49,0
			c0,19.75,0,38.82,0,58.17c-3,0-5.74,0-8.83,0c-0.16-3.11-0.31-6.04-0.48-9.46c-3.06,0-5.98,0-9.48,0
			c-0.18-3.51-0.33-6.56-0.5-10.01c-3.17-0.15-6.1-0.29-9.52-0.45c-0.17-2.82-0.34-5.54-0.52-8.53c-3.23-0.17-6.16-0.33-9.52-0.5
			c-0.14-3.09-0.27-6.02-0.43-9.5c-2.8-0.16-5.52-0.31-8.54-0.49c-0.17-3.2-0.33-6.13-0.5-9.41c-29.71,0-59.26,0-89.14,0
			c-0.17,3.09-0.32,6.02-0.5,9.41c-3.07,0.14-5.99,0.27-9.51,0.43c-0.15,3.11-0.29,6.16-0.45,9.51c-2.87,0.18-5.47,0.34-8.56,0.54
			c0,6.03,0,11.96,0,18.47c-3.51,0.18-6.56,0.33-9.92,0.5c0,19.7,0,39.12,0,59.17c2.98,0.15,6.02,0.31,9.56,0.49
			c0,6.5,0,12.76,0,19.45c3.05,0.19,5.64,0.35,8.86,0.55c0.15,3.02,0.3,6.07,0.47,9.61c6.5,0,12.76,0,19.47,0
			c0.21,3.18,0.39,5.9,0.59,8.88c26.39,0,52.48,0,79.08,0c0.19-2.76,0.37-5.48,0.58-8.68c9.52,0,18.77,0,28.46,0
			C972.54,232.5,972.67,229.58,972.83,226.09z"/>
		<path class="st0" d="M334.05,491.16c0,6.68,0,12.81,0,19.45c3.22,0.15,6.14,0.28,9.74,0.44c0,12.75,0,25.46,0,38.49
			c3.24,0.21,5.83,0.37,9.1,0.58c0,6.1,0,12.16,0,18.46c3.58,0.19,6.51,0.35,9.93,0.54c0,9.76,0,19.35,0,29.33
			c3.71,0,6.91,0,10.64,0c0-9.65,0-19.23,0-29.27c3.52-0.21,6.58-0.39,10.11-0.6c0-6.2,0-12.13,0-18.44c3.4-0.17,6.34-0.32,9.93-0.5
			c0-12.78,0-25.5,0-38.49c3.58-0.19,6.51-0.35,9.93-0.53c0-6.42,0-12.67,0-19.34c6.22,0,11.96,0,18.13,0c0,78.04,0,156.21,0,234.66
			c-5.87,0-11.61,0-17.84,0c0-52.49,0-104.72,0-157.34c-3.7,0-6.9,0-10.63,0c0,13.07,0,25.99,0,39.35c-3.4,0.16-6.34,0.3-9.94,0.48
			c0,12.75,0,25.47,0,38.51c-3.57,0.18-6.5,0.34-9.91,0.51c0,3.06,0,5.97,0,9.33c-3.34,0-6.2,0-9.37,0
			c-0.16-3.02-0.31-5.95-0.48-9.32c-3.09-0.14-6.02-0.28-9.62-0.44c0-12.78,0-25.5,0-38.48c-3.24-0.21-5.84-0.37-8.93-0.57
			c0-9.71,0-19.29,0-29.31c-3.71,0-6.91,0-10.63,0c0,48.9,0,97.8,0,147.13c-6.55,0-12.62,0-19.14,0c0-77.99,0-156.15,0-234.62
			C321.22,491.16,327.29,491.16,334.05,491.16z"/>
		<path class="st0" d="M765.63,726.01c-6.3,0-12.25,0-18.89,0c0-6.47,0-12.86,0-19.51c-3.59-0.19-6.52-0.35-9.94-0.54
			c0-9.75,0-19.33,0-29.46c-3.18-0.19-5.9-0.35-9.09-0.54c0-6.18,0-12.11,0-18.49c-3.4-0.16-6.32-0.29-9.93-0.45
			c0-6.44,0-12.82,0-19.51c-3.58-0.19-6.51-0.35-9.93-0.53c0-16.05,0-31.97,0-48.32c-3.7,0-6.91,0-10.63,0c0,45.56,0,91.13,0,137.13
			c-6.55,0-12.62,0-19.14,0c0-77.99,0-156.16,0-234.63c6.16,0,12.23,0,18.81,0c0,12.79,0,25.37,0,38.45
			c3.39,0.15,6.32,0.28,9.93,0.44c0,9.76,0,19.47,0,29.53c3.58,0.18,6.51,0.33,10.1,0.51c0,12.82,0,25.53,0,38.49
			c3.59,0.19,6.51,0.35,9.93,0.54c0,9.44,0,18.69,0,28.42c3.18,0.21,5.9,0.4,9.1,0.61c0,9.85,0,19.43,0,29.36c3.59,0,6.68,0,10.45,0
			c0-55.25,0-110.61,0-166.31c6.74,0,12.81,0,19.23,0C765.63,569.33,765.63,647.39,765.63,726.01z"/>
		<path class="st0" d="M304.68,883.51c-3.25-0.21-5.85-0.37-8.93-0.57c0-9.78,0-19.37,0-29.33c-3.71,0-6.91,0-10.63,0
			c0,45.72,0,91.29,0,137.24c-6.56,0-12.63,0-19.09,0c0-71.36,0-142.75,0-214.56c5.95,0,12.02,0,18.79,0c0,5.86,0,11.91,0,18.3
			c3.58,0.18,6.51,0.33,10.1,0.52c0,9.82,0,19.54,0,29.46c3.25,0.21,5.85,0.37,8.93,0.57c0,6.09,0,12.01,0,18.41
			c3.52,0.21,6.57,0.39,10.1,0.6c0,13.19,0,26.11,0,39.46c3.4,0.16,6.33,0.3,9.93,0.47c0,12.79,0,25.5,0,38.49
			c3.77,0,6.86,0,10.63,0c0-48.74,0-97.44,0-146.41c6.41,0,12.15,0,18.18,0c0,71.62,0,143.01,0,214.73c-5.89,0-11.62,0-17.88,0
			c0-6.34,0-12.59,0-19.35c-3.52-0.2-6.57-0.38-10.1-0.58c0-6.51,0-12.77,0-19.47c-3.4-0.16-6.32-0.29-9.93-0.46
			c0-9.44,0-18.83,0-28.51c-3.58-0.19-6.51-0.35-10.1-0.54C304.68,909.12,304.68,896.41,304.68,883.51z"/>
		<path class="st0" d="M206.53,510.9c3.65,0,6.45,0,9.84,0c0.16-3.34,0.31-6.39,0.47-9.77c3.2-0.17,6.13-0.32,9.55-0.49
			c0-3.06,0-5.97,0-9.33c12.89,0,25.29,0,38.35,0c0.14,2.8,0.29,5.85,0.47,9.33c3.13,0.14,6.07,0.28,9.54,0.44
			c0.16,3.13,0.31,6.19,0.47,9.53c3.23,0.17,6.16,0.33,9.59,0.51c0,6.07,0,11.99,0,18.44c3.52,0.2,6.57,0.37,9.89,0.56
			c0,52.01,0,103.73,0,155.86c-3.08,0.15-6.01,0.3-9.42,0.47c-0.18,3.16-0.36,6.21-0.56,9.53c-3.21,0.17-6.14,0.33-9.56,0.51
			c0,6.44,0,12.7,0,19.47c-3.52,0.18-6.58,0.33-9.91,0.5c-0.17,3.23-0.33,6.16-0.5,9.42c-12.58,0-24.99,0-37.88,0
			c-0.13-2.95-0.27-5.87-0.43-9.4c-3.1-0.15-6.15-0.3-9.7-0.47c0-6.52,0-12.77,0-19.53c-3.4-0.15-6.32-0.28-9.84-0.44
			c-0.15-3.08-0.31-6.13-0.48-9.56c-3.17-0.16-6.1-0.3-9.4-0.46c0-51.86,0-103.59,0-155.89c2.93-0.15,5.98-0.31,9.52-0.5
			C206.53,523.42,206.53,517.49,206.53,510.9z M236.2,510.47c-0.18,3.17-0.33,5.77-0.48,8.51c-3.35,0.18-6.27,0.33-9.85,0.52
			c0,6.66,0,13.04,0,19.5c-3.59,0.17-6.52,0.31-9.53,0.46c0,45.96,0,91.48,0,137.16c3.27,0.18,6.2,0.33,9.77,0.52
			c0,6.66,0,13.05,0,19.49c3.59,0.18,6.52,0.33,9.62,0.48c0.18,3.32,0.33,6.25,0.5,9.41c6.51,0,12.72,0,19.18,0
			c0.17-3.37,0.33-6.42,0.48-9.48c3.54-0.16,6.46-0.29,9.85-0.44c0-6.76,0-13.02,0-19.52c3.53-0.18,6.58-0.33,9.43-0.48
			c0-46.13,0-91.64,0-137.21c-3.38-0.16-6.3-0.29-9.69-0.45c0-6.74,0-13,0-19.51c-3.53-0.17-6.58-0.32-9.64-0.47
			c-0.18-3.18-0.33-5.77-0.49-8.5C248.81,510.47,242.72,510.47,236.2,510.47z"/>
		<path class="st0" d="M991.64,706.14c-3.17,0-5.97,0-9.38,0c-0.17,3.33-0.32,6.39-0.5,9.83c-3.14,0.15-6.07,0.3-9.49,0.46
			c-0.19,3.14-0.37,6.2-0.56,9.51c-16.03,0-31.76,0-47.83,0c-0.16-3.15-0.32-6.08-0.5-9.49c-3.08,0-6,0-9.48,0
			c-0.17-3.51-0.32-6.57-0.49-9.96c-3.2-0.17-6.13-0.32-9.42-0.49c0-9.54,0-18.94,0-28.74c6.03,0,12.1,0,18.86,0
			c0,6.28,0,12.67,0,19.32c3.59,0.19,6.51,0.35,9.87,0.53c0.15,3.08,0.29,6.01,0.46,9.35c9.63,0,19.18,0,29.21,0
			c0.14-2.94,0.27-5.86,0.43-9.31c3.12-0.18,6.17-0.35,9.55-0.54c0-26.03,0-51.79,0-77.96c-3.28,0-6.48,0-10.14,0
			c-0.15,2.59-0.3,5.18-0.48,8.17c-12.48,0-24.88,0-37.89,0c-0.15-2.55-0.3-5.27-0.49-8.47c-6.51,0-12.77,0-19.39,0
			c0-42.56,0-84.62,0-127.08c6.01,0,12.08,0,18.84,0c0,35.59,0,71.29,0,107.32c3.58,0.19,6.5,0.34,9.89,0.52
			c0.14,3.05,0.28,5.98,0.44,9.34c6.27,0,12.49,0,19.22,0c0-2.9,0-5.81,0-9.29c3.52-0.17,6.57-0.32,9.98-0.49
			c0.16-3.19,0.31-6.12,0.48-9.54c3.04-0.14,5.96-0.28,9.56-0.45c0-32.41,0-64.78,0-97.47c6.74,0,12.8,0,19.22,0
			C991.64,562.68,991.64,634.07,991.64,706.14z"/>
		<path class="st0" d="M481.99,776.07c15.97,0,31.58,0,47.72,0c0.17,2.8,0.34,5.52,0.54,8.72c6.53,0,12.79,0,19.48,0
			c0.16,3.4,0.29,6.33,0.45,9.78c3.12,0.18,6.18,0.35,9.72,0.55c0,6.51,0,12.76,0,19.44c3.07,0.18,5.66,0.33,8.66,0.5
			c0,15.8,0,31.53,0,47.89c-2.51,0.14-5.23,0.3-8.44,0.48c0,6.49,0,12.75,0,19.52c-10.07,0-19.65,0-29.69,0c0,3.38,0,6.25,0,9.67
			c2.83,0.13,5.75,0.26,9.28,0.42c0.15,3.08,0.31,6.13,0.48,9.57c3.16,0.15,6.1,0.29,9.51,0.46c0.18,3.15,0.35,6.21,0.53,9.53
			c3.23,0.17,6.16,0.33,9.52,0.51c0.14,3.09,0.27,6.02,0.43,9.49c2.8,0.17,5.53,0.33,8.51,0.5c0,22.7,0,45.1,0,67.8
			c-5.96,0-11.69,0-17.94,0c0-19.42,0-38.67,0-58.44c-3.4-0.15-6.32-0.29-9.85-0.45c-0.15-3.07-0.31-6.12-0.48-9.57
			c-3.15-0.15-6.09-0.29-9.51-0.45c-0.17-3.15-0.34-6.2-0.52-9.53c-3.23-0.17-6.16-0.33-9.52-0.51c-0.14-3.09-0.27-6.02-0.43-9.5
			c-2.8-0.16-5.53-0.31-8.54-0.49c-0.17-3.2-0.33-6.13-0.5-9.41c-3.38,0-6.59,0-10.32,0c0,32.78,0,65.36,0,98.29
			c-6.57,0-12.64,0-19.08,0C481.99,919.42,481.99,848.02,481.99,776.07z M550.32,863.84c0-16.94,0-33.03,0-49.39
			c-3.34-0.17-6.39-0.33-9.5-0.49c-0.16-3.49-0.29-6.41-0.45-9.8c-6.7,0-12.95,0-19.47,0c-0.21-3.53-0.39-6.57-0.57-9.65
			c-6.61,0-12.69,0-19.02,0c0,26.48,0,52.67,0,78.97c9.88,0,19.42,0,29.08,0c0.18-3.3,0.33-6.23,0.52-9.64
			C537.5,863.84,543.75,863.84,550.32,863.84z"/>
		<path class="st0" d="M903.98,776.07c19.3,0,38.24,0,57.75,0c0.16,2.77,0.32,5.49,0.51,8.69c6.52,0,12.77,0,19.54,0
			c0,6.73,0,12.98,0,19.82c3.52,0.18,6.56,0.33,9.9,0.5c0,16.02,0,31.75,0,47.88c-3.06,0.16-5.99,0.31-9.58,0.5
			c0,6.46,0,12.84,0,19.49c-3.58,0.19-6.51,0.34-9.87,0.52c-0.14,3.09-0.28,6.03-0.45,9.63c-6.45,0-12.83,0-19.49,0
			c0,3.43,0,6.19,0,9.64c6.4,0,12.78,0,19.43,0c0.19,3.59,0.34,6.52,0.52,9.89c3.08,0.14,6.02,0.27,9.51,0.43
			c0.15,3.12,0.31,6.17,0.47,9.54c3.21,0.17,6.14,0.33,9.41,0.5c0,25.89,0,51.62,0,77.73c-6.05,0-12.12,0-18.87,0
			c0-22.63,0-45.33,0-68.32c-3.58-0.19-6.5-0.35-9.89-0.53c-0.14-3.06-0.27-5.99-0.43-9.51c-3.11-0.15-6.16-0.29-9.55-0.46
			c-0.16-3.2-0.31-6.13-0.48-9.5c-2.72-0.16-5.31-0.32-8.52-0.51c-0.15-3.03-0.3-6.08-0.46-9.45c-6.69,0-13.11,0-20.22,0
			c0,32.63,0,65.32,0,98.34c-6.74,0-12.81,0-19.22,0C903.98,919.4,903.98,848.02,903.98,776.07z M962.38,794.54
			c-13.38,0-26.13,0-39.03,0c0,26.51,0,52.7,0,78.91c9.92,0,19.46,0,29.08,0c0.16-3.34,0.3-6.27,0.45-9.34
			c3.36-0.18,6.29-0.33,9.52-0.5c0.17-3.34,0.32-6.4,0.48-9.53c3.46-0.16,6.38-0.3,9.37-0.44c0-16.65,0-32.86,0-49.18
			c-3.31-0.18-6.23-0.33-9.36-0.5C962.71,800.68,962.55,797.75,962.38,794.54z"/>
		<path class="st0" d="M588.92,676.58c3.56,0.19,6.49,0.35,9.91,0.54c0,6.44,0,12.69,0,19.34c10.04,0,19.58,0,29.63,0
			c0-6.33,0-12.58,0-19.28c3.53-0.21,6.58-0.4,10.09-0.61c0-61.86,0-123.43,0-185.35c6.54,0,12.61,0,19.06,0
			c0,64.74,0,129.46,0,194.72c-2.94,0.17-6,0.34-9.53,0.54c0,6.51,0,12.77,0,19.48c-3.39,0.15-6.33,0.29-9.85,0.45
			c-0.15,3.1-0.29,6.16-0.46,9.54c-3.19,0.16-6.12,0.32-9.56,0.49c-0.13,3.03-0.26,5.96-0.41,9.33c-9.25,0-18.44,0-27.94,0
			c-0.16-3.03-0.31-5.96-0.49-9.32c-3.1-0.14-6.02-0.27-9.51-0.43c-0.15-3.12-0.31-6.18-0.47-9.54c-3.22-0.17-6.14-0.33-9.57-0.51
			c0-6.39,0-12.64,0-19.47c-3.51-0.18-6.57-0.33-9.89-0.5c0-65.01,0-129.73,0-194.79c6.18,0,12.25,0,18.99,0
			C588.92,552.95,588.92,614.63,588.92,676.58z"/>
		<path class="st0" d="M373.99,776.09c15.92,0,31.53,0,47.73,0c0.15,2.73,0.31,5.45,0.48,8.52c3.18,0.16,6.11,0.31,9.53,0.48
			c0.14,3.04,0.28,5.96,0.45,9.57c6.4,0,12.79,0,19.54,0c0.17,3.58,0.31,6.5,0.47,9.94c2.82,0.18,5.55,0.35,8.51,0.53
			c0,48.69,0,97.08,0,145.81c-2.78,0.17-5.38,0.34-8.47,0.53c0,6.35,0,12.61,0,19.46c-3.5,0.18-6.56,0.33-10.01,0.51
			c-0.15,3.15-0.29,6.08-0.46,9.68c-6.47,0-12.85,0-19.49,0c-0.19,3.58-0.35,6.51-0.53,9.76c-15.92,0-31.65,0-47.75,0
			C373.99,919.43,373.99,848.05,373.99,776.09z M442.32,951.6c0-45.83,0-91.35,0-137.15c-3.34-0.17-6.4-0.33-9.5-0.48
			c-0.16-3.49-0.29-6.42-0.44-9.81c-6.71,0-12.96,0-19.47,0c-0.21-3.53-0.38-6.58-0.56-9.64c-6.62,0-12.71,0-19.04,0
			c0,59.14,0,117.97,0,176.98c9.86,0,19.4,0,29.09,0c0.18-3.28,0.33-6.22,0.5-9.42c3.36-0.16,6.41-0.31,9.53-0.47
			c0.16-3.5,0.29-6.42,0.44-9.5C436.23,951.93,439.15,951.77,442.32,951.6z"/>
		<path class="st0" d="M676.63,991c-5.95,0-11.56,0-17.86,0c0-19.44,0-38.8,0-58.47c-16.76,0-32.85,0-49.61,0
			c0,19.36,0,38.73,0,58.39c-6.75,0-12.81,0-19.2,0c0-42.24,0-84.29,0-126.8c3-0.15,5.93-0.29,9.52-0.46c0-16.1,0-32.14,0-48.49
			c3.57-0.19,6.5-0.35,9.92-0.54c0-6.38,0-12.64,0-19.47c3.51-0.18,6.57-0.33,10-0.5c0.15-3.17,0.29-6.1,0.45-9.52
			c2.82-0.17,5.54-0.33,8.53-0.51c0.17-2.9,0.32-5.49,0.49-8.41c2.93,0,5.67,0,8.87,0c0.15,2.6,0.29,5.2,0.47,8.41
			c3.05,0.14,6.11,0.29,9.53,0.45c0.16,3.17,0.3,6.1,0.47,9.5c3.15,0.19,6.2,0.37,9.74,0.58c0,6.52,0,12.78,0,19.45
			c3.4,0.16,6.32,0.3,9.91,0.47c0,16.12,0,32.17,0,48.47c3.24,0.21,5.83,0.37,8.77,0.56C676.63,906.32,676.63,948.37,676.63,991z
			 M609.25,912.55c16.7,0,32.77,0,49.03,0c0-16.52,0-32.71,0-49.09c-3.27-0.17-6.19-0.33-9.75-0.52c0-16.31,0-32.34,0-48.48
			c-3.57-0.19-6.51-0.35-9.68-0.52c-0.17-3.37-0.32-6.42-0.47-9.41c-3.71,0-6.8,0-10.17,0c-0.17,3.35-0.32,6.4-0.47,9.47
			c-3.17,0.18-5.76,0.33-8.8,0.5c0,16.33,0,32.23,0,48.42c-3.51,0.21-6.56,0.4-9.69,0.59C609.25,880.07,609.25,896.15,609.25,912.55
			z"/>
		<path class="st0" d="M226.49,776.07c6.46,0,12.08,0,18.09,0c0,61.51,0,122.9,0,184.89c-2.55,0.14-5.28,0.3-8.35,0.47
			c-0.16,3.18-0.31,6.11-0.48,9.53c-3.03,0.14-5.96,0.27-9.51,0.44c-0.16,3.07-0.31,6.12-0.49,9.56c-3.14,0.15-6.07,0.3-9.49,0.46
			c-0.19,3.15-0.37,6.2-0.56,9.51c-9.36,0-18.43,0-27.82,0c-0.17-3.16-0.33-6.09-0.51-9.51c-6.4,0-12.66,0-19.6,0
			c0-6.86,0-13.24,0-19.92c-3.59-0.19-6.51-0.35-9.78-0.52c0-61.55,0-122.95,0-184.73c6.04,0,12.11,0,18.86,0
			c0,58.28,0,116.64,0,175.32c3.57,0.19,6.5,0.34,9.88,0.52c0.15,3.06,0.29,5.99,0.45,9.34c9.61,0,19.16,0,29.22,0
			c0-2.89,0-5.81,0-9.3c3.52-0.18,6.57-0.33,10.1-0.51C226.49,893.11,226.49,834.87,226.49,776.07z"/>
		<path class="st0" d="M88.97,529.93c3.17,0,5.97,0,9.44,0c0-6.34,0-12.39,0-18.8c3.58-0.18,6.51-0.32,9.93-0.49
			c0.18-3.15,0.36-6.21,0.55-9.53c3.2-0.17,6.13-0.32,9.5-0.5c0.14-3.1,0.28-6.02,0.43-9.35c12.5,0,24.91,0,37.91,0
			c0.14,2.88,0.3,5.94,0.46,9.34c3.2,0.16,6.12,0.31,9.54,0.48c0.14,3.04,0.27,5.97,0.43,9.51c3.07,0.15,6.13,0.3,9.49,0.47
			c0,18.99,0,37.72,0,56.8c-6.17,0-12.24,0-18.82,0c0-15.96,0-31.87,0-48.37c-3.51-0.18-6.56-0.33-9.91-0.5
			c-0.18-2.85-0.34-5.45-0.53-8.41c-6.33,0-12.55,0-19.12,0c-0.17,2.7-0.34,5.3-0.54,8.38c-3,0.14-5.93,0.27-9.54,0.44
			c0,6.4,0,12.79,0,19.52c-3.58,0.19-6.51,0.34-9.82,0.51c0,48.99,0,97.85,0,147.19c2.97,0.14,5.89,0.27,9.37,0.44
			c0.16,3.13,0.31,6.18,0.47,9.53c3.22,0.17,6.15,0.33,9.52,0.51c0.15,3.07,0.29,6,0.45,9.34c6.28,0,12.5,0,19.21,0
			c0.13-2.92,0.27-5.84,0.42-9.33c3.11-0.16,6.16-0.32,9.7-0.5c0-9.52,0-18.78,0-28.39c6.56,0,12.63,0,19.08,0
			c0,12.4,0,24.8,0,37.75c-2.97,0.15-6.03,0.31-9.36,0.47c-0.17,3.24-0.33,6.17-0.51,9.53c-3.08,0.14-6.01,0.28-9.47,0.44
			c-0.18,3.12-0.35,6.18-0.54,9.5c-12.68,0-25.08,0-37.85,0c-0.16-3.1-0.31-6.03-0.49-9.47c-3.04-0.13-5.96-0.26-9.5-0.42
			c-0.16-3.07-0.31-6.12-0.48-9.57c-3.15-0.15-6.08-0.29-9.54-0.45c-0.16-3.14-0.31-6.19-0.48-9.53c-3.24-0.17-6.17-0.33-9.42-0.5
			C88.97,640.73,88.97,585.67,88.97,529.93z"/>
		<path class="st0" d="M785.07,864.12c0,3.44,0,6.23,0,9.5c3.23,0.14,6.16,0.27,9.66,0.43c0.15,3.11,0.3,6.16,0.47,9.56
			c3.2,0.16,6.13,0.31,9.5,0.48c0.16,2.72,0.32,5.31,0.51,8.53c3.04,0.14,6.09,0.29,9.45,0.45c0,26,0,51.74,0,77.92
			c-3.02,0.14-5.95,0.28-9.39,0.44c-0.18,3.13-0.35,6.19-0.54,9.54c-3.19,0.17-6.13,0.32-9.51,0.5c-0.14,3.08-0.27,6.01-0.42,9.34
			c-12.5,0-24.9,0-37.91,0c-0.14-2.87-0.3-5.92-0.47-9.33c-3.19-0.16-6.12-0.31-9.54-0.48c-0.14-3.03-0.27-5.96-0.44-9.51
			c-3.07-0.15-6.12-0.31-9.48-0.48c0-9.32,0-18.39,0-27.8c6.18,0,12.25,0,18.84,0c0,5.98,0,11.9,0,18.38
			c3.52,0.18,6.57,0.33,9.92,0.5c0.17,3.21,0.33,6.14,0.51,9.42c6.38,0,12.59,0,19.14,0c0.17-3.1,0.32-6.03,0.5-9.39
			c3.07-0.15,6-0.29,9.35-0.45c0-19.63,0-39.18,0-59.21c-2.93-0.13-5.85-0.27-9.3-0.43c-0.18-3.12-0.35-6.17-0.55-9.71
			c-6.18,0-12.11,0-18.54,0c0-6.41,0-12.33,0-18.82c-3.52-0.17-6.57-0.33-9.93-0.49c-0.17-3.2-0.32-6.13-0.5-9.55
			c-3.07,0-5.99,0-9.48,0c-0.17-3.51-0.32-6.57-0.49-9.98c-3.19-0.16-6.12-0.31-9.41-0.48c0-19.21,0-38.28,0-57.89
			c2.98-0.15,6.03-0.31,9.36-0.48c0.17-3.24,0.33-6.17,0.51-9.54c3.09-0.14,6.01-0.27,9.5-0.42c0.16-2.8,0.32-5.52,0.49-8.51
			c12.7,0,25.1,0,37.83,0c0.18,2.78,0.34,5.38,0.54,8.46c6.36,0,12.62,0,19.32,0c0,13.22,0,25.95,0,39.14c-5.98,0-12.16,0-18.87,0
			c0-9.68,0-19.27,0-29.2c-10.06,0-19.6,0-29.44,0c-0.17,3.15-0.33,6.08-0.5,9.39c-3.11,0.16-6.04,0.31-9.36,0.48
			c0,12.99,0,25.87,0,39.19c2.99,0.14,5.91,0.29,9.33,0.45c0.17,3.15,0.34,6.2,0.53,9.53c3.23,0.17,6.16,0.33,9.52,0.51
			c0.14,3.09,0.27,6.02,0.42,9.5C778.99,863.77,781.71,863.92,785.07,864.12z"/>
		<path class="st0" d="M815.82,510.33c0-6.82,0-12.77,0-19.09c25.57,0,50.97,0,76.76,0c0,6,0,12.07,0,18.84c-9.25,0-18.62,0-28.47,0
			c0,72.25,0,143.81,0,215.75c-6.55,0-12.62,0-19.36,0c0-71.63,0-143.31,0-215.5C834.86,510.33,825.6,510.33,815.82,510.33z"/>
		<path class="st0" d="M835.99,776.06c15.98,0,31.6,0,47.61,0c0,5.87,0,11.61,0,18.04c-9.62,0-19.33,0-29.32,0
			c0,26.78,0,52.86,0,79.64c9.76,0,19.47,0,29.43,0c0,6.43,0,12.16,0,18.41c-9.85,0-19.44,0-29.37,0c0,26.6,0,52.69,0,79.47
			c9.57,0,19.29,0,29.31,0c0,6.76,0,12.82,0,19.24c-15.83,0-31.57,0-47.66,0C835.99,919.41,835.99,848.01,835.99,776.06z"/>
		<path class="st0" d="M88.99,776.11c19.22,0,38.16,0,57.55,0c0,5.84,0,11.69,0,18.05c-12.68,0-25.26,0-38.19,0
			c0,26.7,0,52.89,0,79.6c9.43,0,18.68,0,28.28,0c0,6.23,0,11.97,0,18.22c-9.24,0-18.49,0-28.41,0c0,33.19,0,65.87,0,98.89
			c-6.73,0-12.8,0-19.23,0C88.99,919.44,88.99,848.07,88.99,776.11z"/>
		<path class="st0" d="M804.66,725.99c-6.31,0-12.25,0-18.61,0c0-78.22,0-156.37,0-234.82c6.16,0,12.22,0,18.61,0
			C804.66,569.36,804.66,647.39,804.66,725.99z"/>
		<path class="st0" d="M697.98,776.11c6.22,0,12.17,0,18.56,0c0,71.48,0,142.95,0,214.77c-6.07,0-12.14,0-18.56,0
			C697.98,919.43,697.98,848.07,697.98,776.11z"/>
		<path class="st0" d="M137.07,411.49c0,9.64,0,19.28,0,29.45c-3.07,0.18-5.79,0.33-8.84,0.51c-0.15,3.2-0.29,6.12-0.45,9.4
			c-2.9,0-5.64,0-9.02,0c0-42.29,0-84.63,0-127.46c-6.86,0-13.1,0-19.73,0c0-3.23,0-5.97,0-9.12c15.6,0,31.33,0,47.51,0
			c0,2.66,0,5.51,0,8.87c-5.97,0-11.89,0-18.17,0c0,29.68,0,58.86,0,88.51c3.02,0,5.94,0,8.87,0
			C137.24,411.65,137.07,411.49,137.07,411.49z"/>
		<path class="st0" d="M206.07,402.49c0,9.3,0,18.6,0,28.45c-3.38,0.17-6.44,0.33-9.94,0.51c0,6.51,0,12.76,0,19.38
			c-2.88,0-5.28,0-8.32,0c0-19.23,0-38.57,0-58.35c-3.52-0.16-6.43-0.3-10-0.46c0-13.09,0-26.12,0-39.59c-3.9,0-7.15,0-10.41,0
			c0,0,0.16,0.16,0.16,0.16c0-5.97,0-11.94,0-18.42c3.4-0.19,6.44-0.36,9.95-0.56c0-6.5,0-12.74,0-19.36c3.21,0,5.95,0,9.31,0
			c0,22.57,0,45.23,0,68.32c3.16,0.18,5.75,0.33,9,0.52c0,6.38,0,12.76,0,19.57c3.91,0,7.17,0,10.43,0
			C206.24,402.65,206.07,402.49,206.07,402.49z"/>
		<path class="st0" d="M707.37,441.41c-2.98,0-5.96,0-9.34,0c0-29.54,0-58.59,0-88.28c2.84-0.15,5.89-0.31,9.42-0.5
			c0-6.13,0-12.05,0-18.5c3.51-0.18,6.56-0.33,9.92-0.5c0.17-3.22,0.32-6.15,0.5-9.53c3.06-0.14,5.99-0.27,9.51-0.43
			c0.15-3.1,0.3-6.15,0.46-9.49c6.02,0,11.75,0,17.89,0c0.15,3.22,0.3,6.32,0.45,9.43c0,0,0.19-0.13,0.19-0.13
			c-3.39,0-6.78,0-10.2,0c-0.16,3.57-0.3,6.49-0.43,9.5c-3.08,0.19-5.67,0.35-8.54,0.53c-0.16,3.34-0.31,6.4-0.46,9.51
			c-3.47,0.16-6.39,0.3-9.94,0.46c0,6.44,0,12.48,0,18.55c-3.58,0.16-6.5,0.29-9.55,0.43c0,26.71,0,52.93,0,79.15L707.37,441.41z"/>
		<path class="st0" d="M314.25,382.67c3.28,0,6.55,0,10.12,0c0.17-3.27,0.33-6.2,0.51-9.57c3.07-0.14,5.99-0.27,9.5-0.43
			c0.15-3.1,0.3-6.15,0.46-9.49c9.34,0,18.4,0,27.8,0c0,12.84,0,25.56,0,38.8c-2.91,0.14-5.83,0.27-9.41,0.44
			c0,9.39,0,18.76,0,28.55c-3.4,0.15-6.16,0.27-8.93,0.39l0.16,0.16c0-12.62,0-25.25,0-38.35c3.18-0.2,5.89-0.37,8.87-0.56
			c0-6.71,0-13.13,0-19.97c-2.92,0-5.79,0-9.13,0c-0.14,2.94-0.27,5.86-0.43,9.34c-3.12,0.15-6.17,0.3-9.54,0.47
			c-0.17,3.21-0.32,6.13-0.5,9.53c-3.04,0.14-5.97,0.27-9.51,0.43c-0.15,3.08-0.3,6.13-0.46,9.55c-3.32,0.16-6.43,0.31-9.53,0.46
			l0.13,0.19c0-6.71,0-13.42,0-20.13L314.25,382.67z"/>
		<path class="st0" d="M226.47,352.51c0-9.47,0-18.94,0-29.08c-6.46,0-12.84,0-19.52,0c0-3.41,0-6.15,0-9.23
			c22.47,0,44.85,0,67.63,0c0,2.7,0,5.44,0,8.85c-9.55,0-19.25,0-29.34,0c-0.17,3.56-0.31,6.48-0.47,9.87
			c-2.8,0.19-5.53,0.37-8.71,0.58c0,6.18,0,12.1,0,18.85c-3.56,0-6.66,0-9.76,0L226.47,352.51z"/>
		<path class="st0" d="M766.18,402.48c0,9.28,0,18.56,0,28.46c-3.43,0.17-6.47,0.32-9.96,0.5c-0.14,3.11-0.27,6.03-0.42,9.53
			c-3.09,0.15-6.14,0.3-9.57,0.46c-0.15,3.17-0.29,6.09-0.45,9.39c-12.59,0-25.08,0-37.88,0c-0.18-3.21-0.36-6.31-0.53-9.41
			c0,0-0.13,0.19-0.13,0.19c9.72,0,19.43,0,29.19,0c0.17-3.53,0.3-6.45,0.45-9.51c3.38-0.18,6.3-0.33,9.52-0.5
			c0.17-3.34,0.32-6.39,0.48-9.52c3.44-0.17,6.36-0.31,9.91-0.48c0-6.41,0-12.45,0-18.52c3.63-0.18,6.61-0.33,9.58-0.48
			L766.18,402.48z"/>
		<path class="st0" d="M442.28,441.38c-2.97,0-5.93,0-9.27,0c0-19.62,0-38.75,0-58.27c3.17-0.15,6.26-0.29,9.36-0.44l-0.13-0.19
			c0,3.27,0,6.55,0,10.13c9.92,0,19.53,0,29.13,0l-0.19-0.13c0,2.98,0,5.95,0,9.59c-6.49,0-12.53,0-18.88,0
			c-0.2,3.22-0.37,5.8-0.56,8.86c-3.1,0.18-6.15,0.36-9.62,0.57c0,10.2,0,20.12,0,30.04L442.28,441.38z"/>
		<path class="st0" d="M314.25,402.41c-0.15,2.65-0.31,5.3-0.49,8.56c-3.04,0.14-6.09,0.29-9.62,0.45c0,6.51,0,12.77,0,19.46
			c-3.06,0.19-5.65,0.36-8.91,0.57c0,6.35,0,12.73,0,19.42c-3.4,0-6.14,0-9.24,0c0-12.78,0-25.52,0-38.77
			c2.9-0.14,5.83-0.27,9.43-0.44c0-9.4,0-18.78,0-28.5c3.42-0.19,6.19-0.35,8.96-0.5l-0.13-0.19c0,6.61,0,13.21,0,20.13
			c3.59,0,6.86,0,10.13,0L314.25,402.41z"/>
		<path class="st0" d="M795.07,421.49c0,6.6,0,13.2,0,20.24c20.09,0,39.66,0,59.24,0l-0.16-0.16c0,2.97,0,5.93,0,9.27
			c-22.96,0-45.42,0-68.2,0c0-9.49,0-18.86,0-28.69c3.11-0.17,6.19-0.34,9.28-0.5C795.23,421.65,795.07,421.49,795.07,421.49z"/>
		<path class="st0" d="M609.07,421.49c0,6.6,0,13.21,0,20.24c20.09,0,39.67,0,59.24,0l-0.16-0.16c0,2.97,0,5.93,0,9.27
			c-22.96,0-45.42,0-68.2,0c0-9.49,0-18.86,0-28.69c3.11-0.17,6.19-0.34,9.28-0.5C609.23,421.65,609.07,421.49,609.07,421.49z"/>
		<path class="st0" d="M854.55,362.59c0-9.59,0-19.17,0-29.11c-3.34-0.17-6.26-0.32-9.62-0.49c-0.19-3.15-0.38-6.19-0.59-9.64
			c-9.87,0-19.45,0-29.03,0l0.16,0.16c0-2.97,0-5.95,0-9.28c12.91,0,25.31,0,38.27,0c0.15,2.97,0.3,6.02,0.47,9.37
			c3.22,0.17,6.15,0.33,9.41,0.5c0,12.56,0,24.96,0,37.83c-3.06,0.16-6.15,0.33-9.24,0.5C854.38,362.43,854.55,362.59,854.55,362.59
			z"/>
		<path class="st0" d="M403.55,372.58c0-3.15,0-6.31,0-10.12c-9.83,0-19.53,0-29.57,0c0-3.39,0-6.13,0-9.53c9.69,0,19.4,0,29.35,0
			c0.2-3.22,0.35-5.81,0.56-9.21c2.9,0,5.66,0,8.42,0l-0.16-0.16c0,2.81,0,5.63,0,9.08c9.77,0,19.46,0,29.49,0c0,3.36,0,6.1,0,9.48
			c-9.68,0-19.37,0-29.4,0c-0.16,3.53-0.3,6.45-0.45,9.79c-2.89,0.18-5.64,0.35-8.4,0.51C403.38,372.43,403.55,372.58,403.55,372.58
			z"/>
		<path class="st0" d="M943.07,441.49c0,2.98,0,5.96,0,9.33c-16.44,0-32.49,0-49.19,0c-0.14-2.85-0.28-5.9-0.45-9.34
			c-2.81-0.16-5.4-0.31-8.39-0.48c0-6.14,0-12.2,0-18.71c2.36,0,4.87,0,7.72,0c0.15,3.01,0.3,5.94,0.47,9.33
			c3.08,0.14,6,0.27,9.51,0.42c0.16,3.1,0.31,6.15,0.48,9.6c13.52,0,26.77,0,40.02,0C943.23,441.65,943.07,441.49,943.07,441.49z"/>
		<path class="st0" d="M511.47,411.51c0-12.91,0-25.81,0-39.04c-3.3-0.16-6.22-0.31-9.48-0.47c0-2.91,0-5.65,0-8.76
			c5.69,0,11.42,0,17.82,0c0,6.24,0,12.61,0,19.41c3.9,0,7.16,0,10.42,0c0,0-0.16-0.16-0.16-0.16c0,2.98,0,5.96,0,9.42
			c-3.41,0.2-6.46,0.37-9.99,0.58c0,6.18,0,12.11,0,18.47c-3.24,0.14-6,0.26-8.77,0.39L511.47,411.51z"/>
		<path class="st0" d="M766.25,343.67c2.98,0,5.96,0,9.33,0c0,19.64,0,38.79,0,58.27c-3.19,0.18-6.3,0.36-9.4,0.54
			c0,0,0.19,0.13,0.19,0.13c0-19.71,0-39.42,0-59.13L766.25,343.67z"/>
		<path class="st0" d="M511.31,411.35c0,9.94,0,19.88,0,30.25c2.69,0.15,5.27,0.3,8.26,0.46c0,2.93,0,5.78,0,8.89
			c-9.24,0-18.3,0-27.65,0c0-3,0-5.73,0-8.83c3.09-0.16,6.02-0.32,9.6-0.51c0-9.79,0-19.5,0-29.42c3.74-0.26,6.84-0.47,9.95-0.68
			C511.47,411.51,511.31,411.35,511.31,411.35z"/>
		<path class="st0" d="M943.28,382.37c-12.96,0-25.92,0-39.26,0c0-3.22,0-5.96,0-9.37c9.58,0,19.28,0,29.35,0
			c0.17-3.55,0.31-6.48,0.47-9.85c3.2-0.17,6.3-0.34,9.39-0.51c0,0-0.16-0.16-0.16-0.16c0.02,6.68,0.03,13.36,0.05,20.04
			C943.12,382.54,943.28,382.37,943.28,382.37z"/>
		<path class="st0" d="M393.15,411.57c0,9.89,0,19.77,0,30.08c3.59,0,6.83,0,10.08,0c0,0-0.16-0.16-0.16-0.16c0,2.98,0,5.95,0,9.32
			c-6.54,0-12.71,0-19.16,0c0-12.87,0-25.57,0-39.08c3.22,0,6.31,0,9.4,0L393.15,411.57z"/>
		<path class="st0" d="M265.14,441.57c0,2.97,0,5.93,0,9.27c-6.53,0-12.59,0-19.08,0c0-12.68,0-25.48,0-39.1c3.06,0,6.15,0,9.24,0
			l-0.16-0.16c0,9.9,0,19.8,0,30.16c3.64,0,6.9,0,10.16,0L265.14,441.57z"/>
		<path class="st0" d="M442.12,441.54c6.24,0,12.48,0,19.23,0c0.18-3.04,0.35-6.08,0.56-9.81c6.62,0,13.01,0,19.39,0l-0.16-0.16
			c0,2.96,0,5.93,0,9.37c-3.5,0.19-6.54,0.35-9.9,0.53c-0.16,3.18-0.31,6.1-0.48,9.38c-9.16,0-18.2,0-27.75,0
			c-0.23-3.02-0.48-6.24-0.73-9.46C442.28,441.38,442.12,441.54,442.12,441.54z"/>
		<path class="st0" d="M452.44,372.6c0-2.98,0-5.95,0-9.33c12.97,0,25.47,0,38.26,0c0,6.19,0,12.24,0,18.69
			c-3.25,0.15-6.35,0.3-9.45,0.45l0.13,0.19c0-3.27,0-6.55,0-10.13c-9.92,0-19.53,0-29.13,0L452.44,372.6z"/>
		<path class="st0" d="M952.28,323.37c-16.3,0.02-32.6,0.04-48.9,0.06c0,0,0.16,0.16,0.16,0.16c0-2.97,0-5.95,0-9.32
			c16.16,0,31.96,0,48.57,0c0,3.09,0,6.18,0,9.27L952.28,323.37z"/>
		<path class="st0" d="M540.47,372.51c0-2.97,0-5.95,0-9.28c6.59,0,12.66,0,19.12,0c0,9.37,0,18.77,0,28.58c-2.64,0-5.38,0-8.81,0
			c0-6.22,0-12.6,0-19.46c-3.93,0-7.21,0-10.48,0L540.47,372.51z"/>
		<path class="st0" d="M628.55,323.59c0-2.97,0-5.94,0-9.31c13.14,0,25.93,0,39.16,0c0.16,3.03,0.33,6.11,0.49,9.19
			c0,0,0.16-0.16,0.16-0.16c-13.32,0.04-26.65,0.09-39.97,0.13C628.38,323.43,628.55,323.59,628.55,323.59z"/>
		<path class="st0" d="M393.31,411.73c0-12.68,0-25.36,0-38.51c3.8-0.24,7.01-0.44,10.24-0.64c0,0-0.16-0.16-0.16-0.16
			c-0.13,10.79-0.27,21.59-0.4,32.38c-0.02,1.95,0,3.9,0,6.08c-3.63,0.25-6.73,0.46-9.83,0.68
			C393.15,411.57,393.31,411.73,393.31,411.73z"/>
		<path class="st0" d="M952.47,431.51c-0.02-12.96-0.04-25.93-0.05-38.89c0,0-0.16,0.16-0.16,0.16c2.97,0,5.94,0,9.32,0
			c0,12.82,0,25.29,0,38.57c-3.09,0-6.18,0-9.27,0L952.47,431.51z"/>
		<path class="st0" d="M746.18,323.6c6.42,0,12.84,0,20.07,0c0,7.23,0,13.65,0,20.07c0,0,0.13-0.19,0.13-0.19
			c-3.08-0.17-6.16-0.35-9.5-0.53c-0.18-3.31-0.34-6.34-0.5-9.49c-3.37-0.17-6.28-0.31-9.46-0.47c-0.19-3.35-0.36-6.42-0.53-9.5
			L746.18,323.6z"/>
		<path class="st0" d="M265.55,382.58c0-3.16,0-6.31,0-10.13c-3.17-0.14-6.23-0.28-9.59-0.43c0-2.99,0-5.73,0-8.82
			c6.14,0,12.21,0,18.66,0c0,6.11,0,12.17,0,18.73c-3.04,0.16-6.14,0.33-9.23,0.49C265.38,382.43,265.55,382.58,265.55,382.58z"/>
		<path class="st0" d="M216.07,372.49c0,9.62,0,19.24,0,29.37c-3.53,0.22-6.76,0.42-10,0.62c0,0,0.16,0.16,0.16,0.16
			c0-9.7,0-19.39,0-29.47c3.85-0.2,6.93-0.37,10-0.53C216.24,372.65,216.07,372.49,216.07,372.49z"/>
		<path class="st0" d="M952.12,323.54c3.1,0.2,6.21,0.4,9.58,0.62c0,9.28,0,18.33,0,28.19c-3.2,0-6.29,0-9.39,0l0.16,0.16
			c-0.06-9.71-0.12-19.42-0.18-29.13C952.28,323.37,952.12,323.54,952.12,323.54z"/>
		<path class="st0" d="M619.15,333.57c0,9.27,0,18.54,0,28.23c-3.28,0-6.12,0-9.24,0c0-9.17,0-18.21,0-28.06c3.22,0,6.31,0,9.4,0
			L619.15,333.57z"/>
		<path class="st0" d="M805.07,333.49c0,9.28,0,18.56,0,28.28c-3.15,0-5.99,0-9.14,0c0-9.1,0-18.13,0-27.62
			c3.14-0.17,6.22-0.34,9.3-0.5C805.23,333.65,805.07,333.49,805.07,333.49z"/>
		<path class="st0" d="M255.31,411.73c0-9.36,0-18.71,0-28.5c3.81-0.24,7.02-0.44,10.24-0.64c0,0-0.16-0.16-0.16-0.16
			c0,9.41,0,18.83,0,28.44c-4.03,0.28-7.13,0.49-10.24,0.7C255.15,411.57,255.31,411.73,255.31,411.73z"/>
		<path class="st0" d="M304.37,382.67c0-3.27,0-6.55,0-10.17c-2.8-0.17-5.38-0.33-8.35-0.51c0-2.82,0-5.55,0-8.71
			c5.71,0,11.55,0,18.22,0c0,6.55,0,12.97,0,19.39c0,0,0.13-0.19,0.13-0.19c-3.38,0-6.76,0-10.13,0L304.37,382.67z"/>
		<path class="st0" d="M147.47,392.51c0-6.35,0-12.7,0-19.78c3.72,0,6.78,0,9.84,0l-0.16-0.16c0,6.35,0,12.7,0,19.78
			c-3.72,0-6.78,0-9.84,0L147.47,392.51z"/>
		<path class="st0" d="M412.31,343.73c0-6.41,0-12.81,0-19.54c3.49,0,6.21,0,9.31,0c0,6.05,0,12.09,0,18.65
			c-3.04,0.23-6.26,0.48-9.47,0.72C412.15,343.57,412.31,343.73,412.31,343.73z"/>
		<path class="st0" d="M854.31,441.73c0-6.41,0-12.81,0-19.54c3.49,0,6.21,0,9.31,0c0,6.05,0,12.09,0,18.65
			c-3.04,0.23-6.26,0.48-9.47,0.72C854.15,441.57,854.31,441.73,854.31,441.73z"/>
		<path class="st0" d="M344.31,431.35c0,6.41,0,12.81,0,19.54c-3.49,0-6.21,0-9.31,0c0-6.05,0-12.09,0-18.65
			c3.04-0.23,6.26-0.48,9.47-0.72C344.47,431.51,344.31,431.35,344.31,431.35z"/>
		<path class="st0" d="M157.31,372.73c0-6.37,0-12.73,0-19.5c3.83-0.24,7.03-0.44,10.24-0.64c0,0-0.16-0.16-0.16-0.16
			c0,6.42,0,12.83,0,19.44c-4.04,0.28-7.14,0.49-10.24,0.7C157.15,372.57,157.31,372.73,157.31,372.73z"/>
		<path class="st0" d="M226.31,352.35c0,6.37,0,12.73,0,19.5c-3.83,0.24-7.03,0.44-10.24,0.64c0,0,0.16,0.16,0.16,0.16
			c0-6.42,0-12.83,0-19.44c4.04-0.28,7.14-0.49,10.24-0.7C226.47,352.51,226.31,352.35,226.31,352.35z"/>
		<path class="st0" d="M147.31,392.35c0,6.03,0,12.07,0,18.5c-3.83,0.24-7.03,0.44-10.24,0.64c0,0,0.16,0.16,0.16,0.16
			c0-6.08,0-12.17,0-18.44c4.04-0.28,7.14-0.49,10.24-0.7C147.47,392.51,147.31,392.35,147.31,392.35z"/>
		<path class="st0" d="M284.72,352.02c-3.16,0-5.78,0-8.74,0c0-5.9,0-11.61,0-17.74c2.79,0,5.63,0,8.74,0
			C284.72,340.15,284.72,345.86,284.72,352.02z"/>
		<path class="st0" d="M668.31,441.73c0-6.41,0-12.81,0-19.54c3.15,0,5.55,0,8.31,0c0,6.04,0,12.09,0,18.62
			c-2.71,0.24-5.59,0.49-8.47,0.75C668.15,441.57,668.31,441.73,668.31,441.73z"/>
		<path class="st0" d="M893.14,333.57c0,5.94,0,11.88,0,18.23c-2.95,0-5.46,0-8.24,0c0-5.84,0-11.55,0-17.7
			c2.9-0.13,5.65-0.25,8.4-0.37L893.14,333.57z"/>
		<path class="st0" d="M668.55,362.59c0-6.03,0-12.05,0-18.42c3.23-0.19,5.95-0.35,8.68-0.52c0,0-0.16-0.16-0.16-0.16
			c0,6.03,0,12.05,0,18.42c-3.23,0.19-5.95,0.35-8.68,0.52C668.38,362.43,668.55,362.59,668.55,362.59z"/>
		<path class="st0" d="M442.37,382.67c0.17-3.09,0.34-6.18,0.53-9.54c3.35-0.19,6.45-0.36,9.54-0.53c0,0-0.19-0.13-0.19-0.13
			c-0.17,3.07-0.34,6.14-0.52,9.48c-3.33,0.18-6.41,0.35-9.48,0.52L442.37,382.67z"/>
		<path class="st0" d="M540.31,372.35c-0.19,3.06-0.37,6.11-0.59,9.57c-3.28,0.19-6.47,0.38-9.65,0.57c0,0,0.16,0.16,0.16,0.16
			c0.23-3.09,0.47-6.18,0.72-9.5c3.33-0.22,6.42-0.43,9.52-0.64C540.47,372.51,540.31,372.35,540.31,372.35z"/>
		<path class="st0" d="M628.47,402.51c0-3.04,0-6.08,0-9.78c3.75,0,6.79,0,9.84,0l-0.16-0.16c0,3.04,0,6.08,0,9.78
			c-3.75,0-6.79,0-9.83,0L628.47,402.51z"/>
		<path class="st0" d="M844.47,372.51c0-2.95,0-5.9,0-9.29c3.63-0.23,6.85-0.43,10.08-0.63c0,0-0.16-0.16-0.16-0.16
			c-0.23,3.07-0.46,6.13-0.75,9.92c-3.19,0-6.26,0-9.33,0L844.47,372.51z"/>
		<path class="st0" d="M658.55,372.59c0-2.97,0-5.94,0-9.38c3.54-0.22,6.77-0.42,10-0.62c0,0-0.16-0.16-0.16-0.16
			c-0.23,3.06-0.46,6.11-0.72,9.54c-3.17,0.16-6.22,0.31-9.28,0.46C658.38,372.43,658.55,372.59,658.55,372.59z"/>
		<path class="st0" d="M648.55,382.59c0-2.97,0-5.94,0-9.38c3.54-0.22,6.77-0.42,10-0.62c0,0-0.16-0.16-0.16-0.16
			c-0.23,3.06-0.46,6.11-0.72,9.54c-3.17,0.16-6.22,0.31-9.28,0.46C648.38,382.43,648.55,382.59,648.55,382.59z"/>
		<path class="st0" d="M265.31,441.73c0.19-3.09,0.38-6.18,0.59-9.56c2.92,0,5.64,0,8.73,0c0,2.75,0,5.48,0,8.7
			c-3.06,0.22-6.27,0.46-9.48,0.69C265.14,441.57,265.31,441.73,265.31,441.73z"/>
		<path class="st0" d="M825.14,392.57c0,2.97,0,5.94,0,9.33c-3.57,0.19-6.66,0.36-9.76,0.53c0,0,0.16,0.16,0.16,0.16
			c0-3.06,0-6.11,0-9.86c3.65,0,6.7,0,9.76,0L825.14,392.57z"/>
		<path class="st0" d="M481.31,431.73c0.19-3.09,0.38-6.18,0.59-9.56c2.92,0,5.64,0,8.73,0c0,2.75,0,5.48,0,8.7
			c-3.06,0.22-6.27,0.46-9.48,0.69C481.14,431.57,481.31,431.73,481.31,431.73z"/>
		<path class="st0" d="M677.33,333.7c2.96,0,5.93,0,9.27,0c0,3.2,0,5.94,0,9.2c-3.07,0.19-6.3,0.39-9.53,0.59
			c0,0,0.16,0.16,0.16,0.16c0.09-3.37,0.18-6.74,0.27-10.11C677.5,333.54,677.33,333.7,677.33,333.7z"/>
		<path class="st0" d="M412.47,431.51c0-2.95,0-5.91,0-9.25c3.29,0,6.13,0,9.25,0c0,2.88,0,5.6,0,9.09c-3.24,0-6.33,0-9.41,0
			L412.47,431.51z"/>
		<path class="st0" d="M805.14,411.56c0,2.95,0,5.9,0,9.3c-3.63,0.23-6.85,0.43-10.07,0.63c0,0,0.16,0.16,0.16,0.16
			c0.23-3.07,0.46-6.13,0.75-9.92c3.19,0,6.26,0,9.33,0L805.14,411.56z"/>
		<path class="st0" d="M619.07,411.49c0,2.97,0,5.94,0,9.38c-3.54,0.22-6.77,0.42-10,0.62c0,0,0.16,0.16,0.16,0.16
			c0.23-3.06,0.46-6.11,0.72-9.54c3.17-0.16,6.22-0.31,9.28-0.46C619.23,411.65,619.07,411.49,619.07,411.49z"/>
		<path class="st0" d="M893.31,333.73c0.19-3.06,0.37-6.11,0.59-9.57c3.28-0.19,6.47-0.38,9.65-0.57c0,0-0.16-0.16-0.16-0.16
			c-0.23,3.09-0.47,6.18-0.72,9.5c-3.33,0.22-6.42,0.43-9.52,0.64C893.14,333.57,893.31,333.73,893.31,333.73z"/>
		<path class="st0" d="M815.31,323.35c-0.19,3.06-0.37,6.11-0.59,9.57c-3.28,0.19-6.47,0.38-9.65,0.57c0,0,0.16,0.16,0.16,0.16
			c0.23-3.09,0.46-6.18,0.72-9.5c3.33-0.22,6.42-0.43,9.52-0.64C815.47,323.51,815.31,323.35,815.31,323.35z"/>
		<path class="st0" d="M638.31,392.73c0.19-3.06,0.37-6.11,0.59-9.57c3.28-0.19,6.47-0.38,9.65-0.57c0,0-0.16-0.16-0.16-0.16
			c-0.23,3.09-0.46,6.18-0.72,9.5c-3.33,0.22-6.42,0.43-9.52,0.64C638.14,392.57,638.31,392.73,638.31,392.73z"/>
		<path class="st0" d="M825.31,392.73c0.19-3.08,0.38-6.16,0.59-9.61c3.21-0.16,6.27-0.32,9.34-0.47c0,0-0.16-0.16-0.16-0.16
			c0,2.96,0,5.92,0,9.34c-3.5,0.26-6.71,0.49-9.92,0.73C825.14,392.57,825.31,392.73,825.31,392.73z"/>
		<path class="st0" d="M481.25,382.41c-0.17,3.09-0.34,6.19-0.53,9.54c-3.35,0.19-6.45,0.36-9.54,0.53c0,0,0.19,0.13,0.19,0.13
			c0.17-3.07,0.34-6.14,0.52-9.48c3.33-0.18,6.41-0.35,9.48-0.52C481.37,382.6,481.25,382.41,481.25,382.41z"/>
		<path class="st0" d="M952.31,431.35c-0.19,3.05-0.37,6.11-0.58,9.54c-2.94,0.2-5.8,0.4-8.65,0.6c0,0,0.16,0.16,0.16,0.16
			c0.23-3.09,0.46-6.18,0.71-9.47c2.99-0.23,5.76-0.45,8.53-0.67C952.47,431.51,952.31,431.35,952.31,431.35z"/>
		<path class="st0" d="M952.31,352.35c-0.19,3.05-0.37,6.11-0.58,9.54c-2.94,0.2-5.8,0.4-8.65,0.6c0,0,0.16,0.16,0.16,0.16
			c0.23-3.09,0.46-6.18,0.71-9.47c2.99-0.23,5.76-0.45,8.53-0.67C952.47,352.51,952.31,352.35,952.31,352.35z"/>
		<path class="st0" d="M844.31,372.35c-0.19,3.05-0.37,6.11-0.58,9.54c-2.94,0.2-5.8,0.4-8.65,0.6c0,0,0.16,0.16,0.16,0.16
			c0.23-3.09,0.46-6.18,0.71-9.47c2.99-0.23,5.76-0.45,8.53-0.67C844.47,372.51,844.31,372.35,844.31,372.35z"/>
		<path class="st0" d="M412.31,431.35c-0.19,3.05-0.37,6.11-0.58,9.54c-2.94,0.2-5.8,0.4-8.65,0.6c0,0,0.16,0.16,0.16,0.16
			c0.23-3.09,0.46-6.18,0.71-9.47c2.99-0.23,5.76-0.45,8.53-0.67C412.47,431.51,412.31,431.35,412.31,431.35z"/>
		<path class="st0" d="M677.5,333.54c-2.73-0.19-5.45-0.38-8.58-0.59c-0.19-3.28-0.38-6.46-0.56-9.65c0,0-0.16,0.16-0.16,0.16
			c2.76,0.24,5.52,0.48,8.5,0.74c0.22,3.3,0.42,6.4,0.63,9.5C677.33,333.7,677.5,333.54,677.5,333.54z"/>
		<path class="st0" d="M619.31,333.73c0.19-3.05,0.37-6.11,0.58-9.54c2.94-0.2,5.8-0.4,8.65-0.6c0,0-0.16-0.16-0.16-0.16
			c-0.23,3.09-0.46,6.18-0.71,9.47c-2.99,0.23-5.76,0.45-8.53,0.67C619.15,333.57,619.31,333.73,619.31,333.73z"/>
		<path class="st0" d="M943.12,382.54c2.73,0.19,5.45,0.38,8.58,0.59c0.19,3.28,0.38,6.46,0.56,9.65c0,0,0.16-0.16,0.16-0.16
			c-2.76-0.24-5.52-0.48-8.5-0.74c-0.22-3.3-0.42-6.4-0.63-9.5C943.28,382.37,943.12,382.54,943.12,382.54z"/>
		<path class="st0" d="M805.3,411.73c0.19-2.73,0.38-5.46,0.59-8.58c3.28-0.19,6.46-0.38,9.65-0.56c0,0-0.16-0.16-0.16-0.16
			c-0.24,2.76-0.48,5.52-0.74,8.5c-3.3,0.22-6.4,0.42-9.5,0.63C805.14,411.56,805.3,411.73,805.3,411.73z"/>
		<path class="st0" d="M628.31,402.35c-0.19,2.73-0.37,5.45-0.58,8.55c-2.95,0.2-5.8,0.4-8.66,0.59c0,0,0.16,0.16,0.16,0.16
			c0.24-2.76,0.48-5.52,0.73-8.47c2.97-0.23,5.74-0.44,8.51-0.66C628.47,402.51,628.31,402.35,628.31,402.35z"/>
		<path class="st0" d="M254.8,569.15c0,26.15,0,51.73,0,77.69c-5.9,0-11.63,0-17.77,0c0-25.76,0-51.58,0-77.69
			C242.9,569.15,248.63,569.15,254.8,569.15z"/>
	</g>
</g>
</svg>
