<?xml version="1.0" encoding="utf-8"?>
<!-- Generator: Adobe Illustrator 25.4.1, SVG Export Plug-In . SVG Version: 6.00 Build 0)  -->
<svg version="1.1" id="Layer_1" xmlns="http://www.w3.org/2000/svg" xmlns:xlink="http://www.w3.org/1999/xlink" x="0px" y="0px"
	 viewBox="0 0 169.42 98.76" style="enable-background:new 0 0 169.42 98.76;" xml:space="preserve">
<style type="text/css">
	.st0{fill:#FFFFFF;}
</style>
<g>
	<path class="st0" d="M86.07,66.68c0-7.49-0.02-14.98,0.01-22.47c0.01-4.15,1.41-6.14,5.32-7.42c1.41-0.46,2.91-0.79,4.39-0.88
		c6.89-0.44,12.93,1.51,17.16,7.21c3.66,4.93,5.62,10.38,3.38,16.61c-0.67,1.86-1.69,3.42-3.27,4.6c-0.47,0.35-0.93,0.7-1.38,1.07
		c-3.91,3.34-8.38,4.19-13.31,3.01c-0.57-0.14-1.14-0.26-1.71-0.37c-1.27-0.24-2.54-0.47-3.81-0.7c-0.08,1.23-0.24,2.46-0.24,3.69
		c0.02,6.16,0.09,12.31,0.11,18.47c0,1.49-0.03,3-0.23,4.48c-0.27,1.92-1.05,2.74-2.32,2.79c-1.59,0.06-3.15-1.03-3.44-2.7
		c-0.37-2.12-0.68-4.29-0.7-6.44C85.95,80.66,86,73.67,86,66.68C86.02,66.68,86.05,66.68,86.07,66.68z M93.01,52.17
		c0.06,0.9,0.1,1.65,0.17,2.4c0.3,3.47,1.67,4.92,5.05,5.87c3.18,0.89,5.94-0.12,8.54-1.67c2.35-1.41,3.79-5.78,2.81-8.22
		c-2.27-5.68-7.92-7.68-13.34-5.22c-1.85,0.84-2.95,2.41-3.1,4.51C93.07,50.66,93.04,51.5,93.01,52.17z"/>
	<path class="st0" d="M53.43,56.69c0-4.66,0-9.33,0-13.99c0-0.67-0.02-1.33-0.03-2c-0.01-1.37-0.72-1.93-2.06-1.87
		c-1.83,0.08-3.66,0.09-5.49,0.16c-1.56,0.05-2.76-0.47-3.43-1.97c-0.7-1.56-0.4-2.99,0.72-4.15c0.52-0.54,1.36-0.94,2.12-1.08
		c1.39-0.25,2.81-0.28,4.23-0.36c2.78-0.16,2.85-0.23,2.7-3.12c-0.22-4.32-0.45-8.65-0.63-12.97c-0.05-1.24-0.08-2.52,0.12-3.73
		C52.76,5.22,60.32,0.5,65.83,1.58c4.16,0.81,7.49,2.84,8.43,7.41c0.4,1.95,0.83,3.92,1.03,5.9c0.2,1.95-0.83,3.22-2.64,3.69
		c-2.12,0.55-3.73-0.54-4.07-2.86c-0.19-1.31-0.16-2.66-0.33-3.98C68,9.85,67.06,8.45,65.11,7.98c-2.1-0.51-3.92-0.16-5.38,1.64
		c-1.57,1.93-2.19,4.14-1.93,6.53c0.47,4.38,1.04,8.76,1.67,13.12c0.27,1.87,0.71,2.24,2.63,2.33c1.57,0.07,3.15-0.12,4.73-0.18
		c2.01-0.08,3.2,0.69,3.86,2.48c0.92,2.48-0.1,4.35-2.71,4.76c-1.23,0.2-2.49,0.2-3.74,0.27c-3.13,0.17-3.71,0.63-3.68,3.69
		c0.06,8.08,0.26,16.15,0.33,24.22c0.02,1.9-0.11,3.83-0.4,5.71c-0.14,0.93-0.66,1.89-1.25,2.66c-0.89,1.15-2.18,1.44-3.61,1.09
		c-1.38-0.34-1.76-1.41-1.91-2.62c-0.1-0.82-0.14-1.66-0.15-2.49c-0.01-4.83-0.01-9.66-0.01-14.49
		C53.52,56.69,53.48,56.69,53.43,56.69z"/>
	<path class="st0" d="M16.45,74.18c-3.32-0.06-6.72,0.2-9.71-1.61c-1.4-0.85-2.7-1.92-3.88-3.06c-1.44-1.39-1.7-3.12-1.06-5.07
		c0.73-2.21,2.69-3.01,4.6-1.72c1.38,0.93,2.66,2,4.05,2.91c2.51,1.63,5.26,1.96,8.15,1.3c2.7-0.62,3.79-1.73,4.17-4.26
		c0.38-2.55-0.57-4.79-2.77-5.88c-1.39-0.69-2.93-1.17-4.45-1.47c-4.64-0.91-8.56-2.74-11.56-6.69c-3.16-4.15-2.77-8.31-1.13-12.72
		c0.12-0.31,0.32-0.58,0.46-0.89c2.13-4.92,6.11-6.82,11.21-6.73c4.48,0.08,8.5,1.43,11.74,4.7c1.03,1.04,1.75,2.19,1.89,3.69
		c0.12,1.27-0.16,2.31-1.31,3c-1.19,0.71-2.38,0.72-3.51-0.12c-0.93-0.7-1.79-1.49-2.72-2.19c-3.3-2.49-7.35-1.9-9.89,1.43
		c-2.11,2.77-1.2,7.04,1.98,8.47c1.64,0.74,3.47,1.23,5.26,1.44c6.42,0.74,9.73,4.57,11.06,9.96c1.36,5.46-1.09,11.32-5.83,14.36
		c-1,0.64-2.3,0.89-3.5,1.1C18.64,74.32,17.53,74.18,16.45,74.18z"/>
	<path class="st0" d="M132.04,55.95c-0.14-3.23,0.84-5.84,2.07-8.28c2.86-5.71,6.92-10.04,13.42-11.81
		c4.98-1.36,9.7-1.31,14.35,0.88c0.95,0.44,1.87,1.1,2.57,1.87c0.94,1.03,1.01,3.05,0.39,4c-0.67,1.03-2.23,1.39-3.86,0.89
		c-1.51-0.46-3-1-4.54-1.36c-3.5-0.83-6.83-0.34-9.76,1.8c-4.61,3.36-6.93,8.04-7.05,13.68c-0.03,1.59,0.61,3.29,1.3,4.77
		c2.42,5.22,9.94,8.78,15.56,7.49c1.13-0.26,2.24-0.62,3.36-0.94c1.04-0.31,2.06-0.69,3.11-0.94c2.35-0.56,3.86,0.02,4.73,1.71
		c0.85,1.64,0.43,3.32-1.38,4.82c-4.12,3.44-8.81,4.83-14.18,3.93c-3.67-0.61-7.08-1.89-10.24-3.8
		C135.02,70.49,132.46,63.72,132.04,55.95z"/>
</g>
<g>
	<path d="M91.16,174.21c0-7.49-0.02-14.98,0.01-22.47c0.01-4.15,1.41-6.14,5.32-7.42c1.41-0.46,2.91-0.79,4.39-0.88
		c6.89-0.44,12.93,1.51,17.16,7.21c3.66,4.93,5.62,10.38,3.38,16.61c-0.67,1.86-1.69,3.42-3.27,4.6c-0.47,0.35-0.93,0.7-1.38,1.07
		c-3.91,3.34-8.38,4.19-13.31,3.01c-0.57-0.14-1.14-0.26-1.71-0.37c-1.27-0.24-2.54-0.47-3.81-0.7c-0.08,1.23-0.24,2.46-0.24,3.69
		c0.02,6.16,0.09,25.62,0.11,31.77c0,1.49-0.03,3-0.23,4.48c-0.27,1.92-1.05,2.74-2.32,2.79c-1.59,0.06-3.15-1.03-3.44-2.7
		c-0.37-2.12-0.68-4.29-0.7-6.44c-0.09-6.99-0.03-27.28-0.03-34.27C91.12,174.21,91.14,174.21,91.16,174.21z M98.1,159.7
		c0.06,0.9,0.1,1.65,0.17,2.4c0.3,3.47,1.67,4.92,5.05,5.87c3.18,0.89,5.94-0.12,8.54-1.67c2.35-1.41,3.79-5.78,2.81-8.22
		c-2.27-5.68-7.92-7.68-13.34-5.22c-1.85,0.84-2.95,2.41-3.1,4.51C98.16,158.19,98.14,159.02,98.1,159.7z"/>
	<path d="M53.43,198.41c0-4.66,0-9.33,0-13.99c0-0.67-0.02-1.33-0.03-2c-0.01-1.37-0.72-1.93-2.06-1.87
		c-1.83,0.08-3.66,0.09-5.49,0.16c-1.56,0.05-2.76-0.47-3.43-1.97c-0.7-1.56-0.4-2.99,0.72-4.15c0.52-0.54,1.36-0.94,2.12-1.08
		c1.39-0.25,2.81-0.28,4.23-0.36c2.78-0.16,2.85-0.23,2.7-3.12c-0.22-4.32-0.45-8.65-0.63-12.97c-0.05-1.24-0.08-2.52,0.12-3.73
		c1.08-6.37,8.64-11.09,14.15-10.02c4.16,0.81,7.49,2.84,8.43,7.41c0.4,1.95,0.83,3.92,1.03,5.9c0.2,1.95-0.83,3.22-2.64,3.69
		c-2.12,0.55-3.73-0.54-4.07-2.86c-0.19-1.31-0.16-2.66-0.33-3.98c-0.25-1.89-1.19-3.29-3.15-3.76c-2.1-0.51-3.92-0.16-5.38,1.64
		c-1.57,1.93-2.19,4.14-1.93,6.53c0.47,4.38,1.04,8.76,1.67,13.12c0.27,1.87,0.71,2.24,2.63,2.33c1.57,0.07,3.15-0.12,4.73-0.18
		c2.01-0.08,3.2,0.69,3.86,2.48c0.92,2.48-0.1,4.35-2.71,4.76c-1.23,0.2-2.49,0.2-3.74,0.27c-3.13,0.17-3.71,0.63-3.68,3.69
		c0.06,8.08,0.26,16.15,0.33,24.22c0.02,1.9-0.11,3.83-0.4,5.71c-0.14,0.93-0.66,1.89-1.25,2.66c-0.89,1.15-2.18,1.44-3.61,1.09
		c-1.38-0.34-1.76-1.41-1.91-2.62c-0.1-0.82-0.14-1.66-0.15-2.49c-0.01-4.83-0.01-9.66-0.01-14.49
		C53.52,198.41,53.48,198.41,53.43,198.41z"/>
	<path d="M16.45,215.9c-3.32-0.06-6.72,0.2-9.71-1.61c-1.4-0.85-2.7-1.92-3.88-3.06c-1.44-1.39-1.7-3.12-1.06-5.07
		c0.73-2.21,2.69-3.01,4.6-1.72c1.38,0.93,2.66,2,4.05,2.91c2.51,1.63,5.26,1.96,8.15,1.3c2.7-0.62,3.79-1.73,4.17-4.26
		c0.38-2.55-0.57-4.79-2.77-5.88c-1.39-0.69-2.93-1.17-4.45-1.47c-4.64-0.91-8.56-2.74-11.56-6.69c-3.16-4.15-2.77-8.31-1.13-12.72
		c0.12-0.31,0.32-0.58,0.46-0.89c2.13-4.92,6.11-6.82,11.21-6.73c4.48,0.08,8.5,1.43,11.74,4.7c1.03,1.04,1.75,2.19,1.89,3.69
		c0.12,1.27-0.16,2.31-1.31,3c-1.19,0.71-2.38,0.72-3.51-0.12c-0.93-0.7-1.79-1.49-2.72-2.19c-3.3-2.49-7.35-1.9-9.89,1.43
		c-2.11,2.77-1.2,7.04,1.98,8.47c1.64,0.74,3.47,1.23,5.26,1.44c6.42,0.74,9.73,4.57,11.06,9.96c1.36,5.46-1.09,11.32-5.83,14.36
		c-1,0.64-2.3,0.89-3.5,1.1C18.64,216.04,17.53,215.9,16.45,215.9z"/>
	<path d="M132.04,164.57c-0.14-3.23,0.84-5.84,2.07-8.28c2.86-5.71,6.92-10.04,13.42-11.81c4.98-1.36,9.7-1.31,14.35,0.88
		c0.95,0.44,1.87,1.1,2.57,1.87c0.94,1.03,1.01,3.05,0.39,4c-0.67,1.03-2.23,1.39-3.86,0.89c-1.51-0.46-3-1-4.54-1.36
		c-3.5-0.83-6.83-0.34-9.76,1.8c-4.61,3.36-6.93,8.04-7.05,13.68c-0.03,1.59-0.63,17.44,1.65,32.05c0.89,5.69,8.12,10.24,13.75,8.95
		c1.13-0.26,2.24-0.62,3.36-0.94c1.04-0.31,2.06-0.69,3.11-0.94c2.35-0.56,3.86,0.02,4.73,1.71c0.85,1.64,0.43,3.32-1.38,4.82
		c-4.12,3.44-8.81,4.83-14.18,3.93c-3.67-0.61-8.18-3.91-12.26-8.5C130.96,198.61,132.46,172.34,132.04,164.57z"/>
</g>
<g>
	<path d="M23.25-227.81c-0.69,11.49,0.78,23-0.88,34.5c-0.53,3.68-1.74,6.52-3.83,9.25c-2.3,3-5.34,3.12-8.78,2.28
		c-3.2-0.78-4.64-2.6-5.28-5.81c-0.93-4.71-0.12-9.25,0.24-13.89c0.58-7.41,0.96-14.84,1-22.26c0.01-2.04-1.13-4.35-2.39-6.07
		c-2.4-3.3-5.52-5.65-9.81-6.58c-6.47-1.41-9.12-4.84-10.19-11.15c-1.19-7,0.54-13.66,2.17-20.29c1.2-4.88,10.24-11.44,14.78-11.4
		c6.72,0.07,14.63,5.58,16.78,12.11c1.83,5.55,3.22,11.24,4.69,16.45C22.36-242.7,23.7-235.2,23.25-227.81z M-7.71-251.22
		c1,5.4,3.22,7.66,8.17,8.22c4.04,0.46,6.52-1.17,8.54-6.11c3.01-7.35-0.66-15.91-7.93-16.11c-1.37-0.04-2.73-0.61-4.24-0.97
		C-7.4-261.57-8.73-256.74-7.71-251.22z"/>
	<path d="M-98.01-252.76c2.34-1.79,4.56-3.46,6.74-5.18c3.07-2.42,6.58-3.74,10.38-4.64c6.77-1.6,21.05,4.85,23.94,11.68
		c1.81,4.29,3.84,8.26,3.91,13.2c0.09,7.01,1.36,13.99,1.76,21.01c0.52,9.2-5.76,18.15-14.38,20.9c-4.53,1.45-8.84,0.19-13.06-1.45
		c-2.45-0.95-4.83-2.12-7.31-2.96c-2.44-0.82-4.25,0.3-5.82,2.23c-1.57,1.92-2.05,3.79-1.02,6.15c3.98,9.14,12.5,12.93,22.73,11.7
		c7.05-0.85,12.17-4.47,16.53-9.91c5.02-6.26,9.06-12.91,10.7-20.83c1.02-4.95,1.89-9.91,0.94-15.02c-0.85-4.6-1.8-9.21-2.11-13.86
		c-0.45-6.86-4.21-12.66-5.6-19.19c-0.04-0.19-0.15-0.38-0.28-0.53c-7.2-8.29-14.82-15.79-27.13-14.66
		c-0.81,0.07-1.63,0.17-2.43,0.11c-9.36-0.62-17.97,4.07-22.05,12.06C-103.34-258.5-102.65-256.33-98.01-252.76z"/>
	<path d="M54.05-233.37c6.5,0.33,12.11,0.62,17.8,0.92c1.97,3.53,2.12,7.18,2.02,10.77c-0.14,5.03-0.81,10.04-0.95,15.06
		c-0.12,4.42-0.02,8.87,0.33,13.28c0.27,3.39,4.18,6.73,7.45,6.85c2.98,0.12,6.35-2.24,7.01-5.67c0.68-3.52,1.37-7,0.93-10.8
		c-0.87-7.4-0.83-14.9-1.2-22.36c-0.17-3.43-0.45-6.86-0.66-10.29c-0.36-5.84-0.86-11.68-1.01-17.52
		c-0.22-8.26-4.65-14.43-9.78-20.23c-0.83-0.94-2.53-1.52-3.85-1.55c-5.26-0.14-10.64-0.65-15.76,0.21
		c-7.03,1.19-7.91,4.99-6.23,10.57c0.45,1.49,2.19,3.3,3.65,3.64c3.48,0.82,7.15,1.13,10.75,1.15c5.12,0.02,6.5,1.01,6.98,6.09
		c0.13,1.4,0.29,2.82,0.24,4.22c-0.09,2.37-1.47,3.85-3.8,3.78c-2.8-0.09-5.64-0.31-8.39-0.83c-5.3-1.01-9.16,2.76-7.78,7.97
		C52.24-236.42,53.31-234.89,54.05-233.37z"/>
	<path d="M111.51-248.72c3.56-0.85,4.02-3.65,4.91-6.08c0.7-1.9,0.98-4.02,1.97-5.74c1.66-2.89,3.71-5.12,7.83-4.35
		c2.71,0.51,5.48,0,8.2,1.44c6.27,3.31,9.58,9.48,7.29,16.06c-1.45,4.17-4.64,7.54-8.37,10.03c-2.16,1.45-4.73,2.29-7.11,3.43
		c-2.91,1.4-5.82,2.83-8.71,4.26c-5.36,2.66-6.95,7.58-7.49,12.96c-0.47,4.64-0.69,9.24,1.84,13.6
		c7.8,13.45,17.77,16.45,31.28,12.36c4.08-1.23,7.67-3.52,10.21-7.24c2.89-4.24,2.69-7.12-1.43-11.28c-2.43,1.61-4.94,3.1-6.4,5.96
		c-1.88,3.68-4.83,4.71-9.03,4.26c-12.53-1.34-15.41-10.23-15.61-20.15c-0.03-1.51,1.36-3.51,2.68-4.48c2.42-1.77,5.14-3.52,8-4.23
		c8.58-2.15,13.4-7.85,16.33-15.69c0.36-0.95,0.49-2.01,0.96-2.89c3.52-6.5,0.84-12.65-1.36-18.62c-0.84-2.29-3.08-4.28-5.11-5.87
		c-6.24-4.89-18.88-4.98-25.44-0.43c-0.33,0.23-0.84,0.4-0.96,0.72c-2.17,5.58-7.25,9.75-7.77,16.13
		C107.96-251.53,107.9-251.53,111.51-248.72z"/>
</g>
<g>
	<path d="M31.06-401.89c1.47-5.21,2.86-10.9,4.69-16.45c2.16-6.53,10.06-12.04,16.78-12.11c4.54-0.04,13.59,6.52,14.78,11.4
		c1.62,6.62,3.35,13.28,2.17,20.29c-1.07,6.31-3.71,9.74-10.19,11.15c-4.28,0.93-7.4,3.28-9.81,6.58c-1.25,1.72-2.4,4.03-2.39,6.07
		c0.04,7.42,0.43,14.86,1,22.26c0.36,4.64,1.18,9.19,0.24,13.89c-0.64,3.21-2.07,5.02-5.28,5.81c-3.44,0.84-6.48,0.71-8.78-2.28
		c-2.09-2.72-3.3-5.57-3.83-9.25c-1.66-11.5-0.19-23.01-0.88-34.5C29.14-386.42,30.48-393.92,31.06-401.89z M56.02-417.42
		c-1.51,0.36-2.87,0.93-4.24,0.97c-7.28,0.2-10.94,8.76-7.93,16.11c2.03,4.94,4.5,6.57,8.54,6.11c4.94-0.56,7.17-2.82,8.17-8.22
		C61.57-407.96,60.25-412.8,56.02-417.42z"/>
	<path d="M150.85-403.98c-2.34-1.79-4.56-3.46-6.74-5.18c-3.07-2.42-6.58-3.74-10.38-4.64c-6.77-1.6-21.05,4.85-23.94,11.68
		c-1.81,4.29-3.84,8.26-3.91,13.2c-0.09,7.01-1.36,13.99-1.76,21.01c-0.52,9.2,5.76,18.15,14.38,20.9
		c4.53,1.45,8.84,0.19,13.06-1.45c2.45-0.95,4.83-2.12,7.31-2.96c2.44-0.82,4.25,0.3,5.82,2.23c1.57,1.92,2.05,3.79,1.02,6.15
		c-3.98,9.14-12.5,12.93-22.73,11.7c-7.05-0.85-12.17-4.47-16.53-9.91c-5.02-6.26-9.06-12.91-10.7-20.83
		c-1.02-4.95-1.89-9.91-0.94-15.02c0.85-4.6,1.8-9.21,2.11-13.86c0.45-6.86,4.21-12.66,5.6-19.19c0.04-0.19,0.15-0.38,0.28-0.53
		c7.2-8.29,14.82-15.79,27.13-14.66c0.81,0.07,1.63,0.17,2.43,0.11c9.36-0.62,17.97,4.07,22.05,12.06
		C156.19-409.72,155.49-407.55,150.85-403.98z"/>
	<path d="M-1.21-384.59c-6.5,0.33-12.11,0.62-17.8,0.92c-1.97,3.53-2.12,7.18-2.02,10.77c0.14,5.03,0.81,10.04,0.95,15.06
		c0.12,4.42,0.02,8.87-0.33,13.28c-0.27,3.39-4.18,6.73-7.45,6.85c-2.98,0.12-6.35-2.24-7.01-5.67c-0.68-3.52-1.37-7-0.93-10.8
		c0.87-7.4,0.83-14.9,1.2-22.36c0.17-3.43,0.45-6.86,0.66-10.29c0.36-5.84,0.86-11.68,1.01-17.52c0.22-8.26,4.65-14.43,9.78-20.23
		c0.83-0.94,2.53-1.52,3.85-1.55c5.26-0.14,10.64-0.65,15.76,0.21c7.03,1.19,7.91,4.99,6.23,10.57c-0.45,1.49-2.19,3.3-3.65,3.64
		c-3.48,0.82-7.15,1.13-10.75,1.15c-5.12,0.02-6.5,1.01-6.98,6.09c-0.13,1.4-0.29,2.82-0.24,4.22c0.09,2.37,1.47,3.85,3.8,3.78
		c2.8-0.09,5.64-0.31,8.39-0.83c5.3-1.01,9.16,2.76,7.78,7.97C0.61-387.65-0.47-386.11-1.21-384.59z"/>
	<path d="M-58.67-399.94c-3.56-0.85-4.02-3.65-4.91-6.08c-0.7-1.9-0.98-4.02-1.97-5.74c-1.66-2.89-3.71-5.12-7.83-4.35
		c-2.71,0.51-5.48,0-8.2,1.44c-6.27,3.31-9.58,9.48-7.29,16.06c1.45,4.17,4.64,7.54,8.37,10.03c2.16,1.45,4.73,2.29,7.11,3.43
		c2.91,1.4,5.82,2.83,8.71,4.27c5.36,2.66,6.95,7.58,7.49,12.96c0.47,4.64,0.69,9.24-1.84,13.6c-7.8,13.45-17.77,16.45-31.28,12.36
		c-4.08-1.23-7.67-3.52-10.21-7.24c-2.89-4.24-2.69-7.12,1.43-11.28c2.43,1.61,4.94,3.1,6.4,5.96c1.88,3.68,4.83,4.71,9.03,4.26
		c12.53-1.34,15.41-10.23,15.61-20.15c0.03-1.51-1.36-3.51-2.68-4.48c-2.42-1.77-5.14-3.52-8-4.23c-8.58-2.15-13.4-7.85-16.33-15.69
		c-0.36-0.95-0.49-2.01-0.96-2.89c-3.52-6.5-0.84-12.65,1.36-18.62c0.84-2.29,3.08-4.28,5.11-5.87c6.24-4.89,18.88-4.98,25.44-0.43
		c0.33,0.23,0.84,0.4,0.96,0.72c2.17,5.58,7.25,9.75,7.77,16.13C-55.12-402.75-55.06-402.76-58.67-399.94z"/>
</g>
<g>
	<g>
		<path class="st0" d="M-537.44-208.61c105.79,0,211.58,0,317.37,0c0,71.59,0,143.18,0,214.77c-117.85,0-235.69,0-353.54,0
			c0-71.59,0-143.18,0-214.77c9.87,0,19.73,0,29.6,0c0.01,10.09,0.1,20.19,0.02,30.28c-0.5,58.1-1.06,116.19-1.49,174.29
			c-0.02,2.75,1.03,5.51,1.58,8.27c0.73-0.06,1.46-0.13,2.2-0.19c0.47-1.7,1.3-3.39,1.34-5.1c0.41-17.71,0.79-35.43,1-53.15
			c0.33-28.05,0.46-56.1,0.8-84.15C-538.28-161.78-537.82-185.2-537.44-208.61z M-398.59-106.13c0.3,0.03,0.59,0.06,0.89,0.09
			c0,1.91-0.12,3.82,0.02,5.72c0.86,12.21,1.63,24.43,2.75,36.62c0.6,6.54,4.35,11.07,11.19,10.38c7.02-0.7,6.54-7,6.73-12.11
			c0.09-2.4-0.75-4.82-0.93-7.25c-0.59-7.86-1.77-15.77-1.28-23.56c0.24-3.76,2.85-9.15,5.91-10.62
			c11.52-5.5,12.55-14.46,10.99-25.28c-1.56-10.84-7.42-17.83-16.21-18.3c-8.03-0.43-15.03,6.04-16.89,16.8
			C-396.99-124.56-397.57-115.31-398.59-106.13z M-438.31-112.04c-3.07-10.72-1.78-12.9,9-14.7c5.12-0.86,8.32-3,7.67-8.48
			c-0.61-5.15-3.88-7.32-9.09-7.37c-15.43-0.16-23.97,6.53-24.52,22.06c-0.7,19.6,0.09,39.27,0.56,58.9
			c0.13,5.22,2.56,10.4,8.59,9.99c6.13-0.42,8.45-5.33,7.97-11.29c-0.63-7.88-1.52-15.74-1.9-23.63
			c-0.56-11.47-0.43-11.72,10.97-12.72c5.97-0.53,7.43-3.81,6.87-8.81c-0.57-5.12-4.01-5.86-8.38-5.02
			C-433.17-112.63-435.81-112.38-438.31-112.04z M-329.82-102.63c0.76-7.23,0.93-13.55,2.16-19.66
			c3.51-17.47,16.18-22.66,31.11-13.35c1.86,1.16,4.88,0.47,7.37,0.64c0.02-2.7,1.2-6.35-0.13-7.95
			c-5.51-6.66-11.9-11.47-21.81-10.02c-12.62,1.84-21.04,8.78-24.15,20.25c-2.95,10.9-4.67,22.55-4.28,33.79
			c0.31,8.84,3.19,18.34,7.52,26.12c7.23,12.99,20.94,16.41,31.33,9.81c7.52-4.78,10.7-10.87,7.25-15.09
			c-4.87-5.97-9.7-1.54-14.49,0.84c-9.52,4.73-18.34,0.45-20.3-10.08C-329.24-92.66-329.38-98.13-329.82-102.63z M-498.4-46.23
			c14.64-1.29,23.28-13.07,25.06-21.66c2.85-13.74-2.33-21.77-15.4-26.75c-4-1.52-7.96-3.5-11.45-5.94
			c-6.3-4.41-5.85-11.33-3.38-16.98c1.55-3.55,6.26-7.08,10.15-7.96c6.77-1.53,7.75,4.9,9.92,9.6c0.91,1.98,3.81,3.06,5.81,4.54
			c0.98-2.27,2.9-4.58,2.78-6.79c-0.44-8.14-9.04-17.48-16.24-18.39c-9.65-1.22-18.8,4.05-22.41,12.9
			c-6.24,15.3,1.79,30.24,19.75,36.65c4.56,1.63,8.73,3.4,8.52,9.4c-0.26,7.56-2.53,13.74-9.75,17.57
			c-5.28,2.8-8.49,0.46-12.16-3.05c-1.76-1.68-4.94-1.89-7.48-2.76c0.1,3.26-1.14,8,0.54,9.5
			C-509.57-52.25-503.74-49.51-498.4-46.23z M-272.05-64.65c7.16-0.01,12.36-5.06,12.3-10.71c-0.05-4.98-6.88-10.35-12.92-10.14
			c-5.79,0.19-10.59,5.46-10.28,11.58C-282.55-66.17-276.42-65.66-272.05-64.65z"/>
		<path d="M-537.44-208.61c-0.38,23.42-0.84,46.83-1.13,70.25c-0.34,28.05-0.47,56.1-0.8,84.15c-0.21,17.72-0.59,35.43-1,53.15
			c-0.04,1.71-0.87,3.4-1.34,5.1c-0.73,0.06-1.46,0.13-2.2,0.19c-0.55-2.76-1.6-5.52-1.58-8.27c0.43-58.1,0.99-116.2,1.49-174.29
			c0.09-10.09-0.01-20.19-0.02-30.28C-541.82-208.61-539.63-208.61-537.44-208.61z"/>
		<path d="M-398.59-106.13c1.02-9.17,1.6-18.43,3.17-27.51c1.86-10.76,8.86-17.23,16.89-16.8c8.79,0.47,14.65,7.46,16.21,18.3
			c1.55,10.82,0.53,19.78-10.99,25.28c-3.07,1.46-5.67,6.86-5.91,10.62c-0.5,7.8,0.69,15.71,1.28,23.56
			c0.18,2.43,1.03,4.85,0.93,7.25c-0.19,5.11,0.28,11.41-6.73,12.11c-6.84,0.69-10.59-3.84-11.19-10.38
			c-1.11-12.19-1.88-24.41-2.75-36.62c-0.13-1.9-0.02-3.81-0.02-5.72C-397.99-106.07-398.29-106.1-398.59-106.13z M-371.15-124.11
			c-0.39-2.93-0.17-4.5-0.81-5.55c-1.6-2.61-3.58-4.98-5.41-7.44c-1.75,2.44-4.17,4.65-5.06,7.37c-0.97,2.96-0.97,6.44-0.57,9.59
			c0.63,4.99,3.95,5.82,7.42,2.8C-373.34-119.31-372.17-122.48-371.15-124.11z"/>
		<path d="M-438.31-112.04c2.5-0.34,5.15-0.58,7.74-1.08c4.37-0.84,7.81-0.1,8.38,5.02c0.56,5-0.91,8.28-6.87,8.81
			c-11.39,1.01-11.52,1.25-10.97,12.72c0.38,7.89,1.28,15.75,1.9,23.63c0.47,5.97-1.84,10.88-7.97,11.29
			c-6.03,0.41-8.46-4.77-8.59-9.99c-0.48-19.63-1.26-39.29-0.56-58.9c0.55-15.53,9.1-22.22,24.52-22.06
			c5.2,0.05,8.48,2.22,9.09,7.37c0.65,5.48-2.55,7.62-7.67,8.48C-440.1-124.94-441.38-122.77-438.31-112.04z"/>
		<path d="M-329.82-102.63c0.44,4.5,0.58,9.97,1.57,15.29c1.96,10.53,10.78,14.8,20.3,10.08c4.79-2.38,9.62-6.8,14.49-0.84
			c3.45,4.22,0.26,10.32-7.25,15.09c-10.39,6.6-24.1,3.18-31.33-9.81c-4.33-7.78-7.21-17.28-7.52-26.12
			c-0.39-11.23,1.33-22.89,4.28-33.79c3.11-11.48,11.53-18.41,24.15-20.25c9.92-1.45,16.31,3.36,21.81,10.02
			c1.32,1.6,0.15,5.24,0.13,7.95c-2.48-0.17-5.51,0.52-7.37-0.64c-14.93-9.31-27.59-4.13-31.11,13.35
			C-328.89-116.18-329.06-109.86-329.82-102.63z"/>
		<path d="M-498.4-46.23c-5.34-3.28-11.17-6.01-15.77-10.11c-1.68-1.5-0.44-6.24-0.54-9.5c2.54,0.87,5.72,1.08,7.48,2.76
			c3.67,3.51,6.88,5.85,12.16,3.05c7.23-3.83,9.49-10.02,9.75-17.57c0.21-6-3.96-7.77-8.52-9.4c-17.96-6.41-25.98-21.34-19.75-36.65
			c3.61-8.86,12.76-14.13,22.41-12.9c7.2,0.91,15.8,10.25,16.24,18.39c0.12,2.21-1.8,4.52-2.78,6.79c-2-1.49-4.9-2.56-5.81-4.54
			c-2.16-4.71-3.15-11.13-9.92-9.6c-3.89,0.88-8.6,4.41-10.15,7.96c-2.47,5.66-2.92,12.57,3.38,16.98c3.5,2.45,7.45,4.42,11.45,5.94
			c13.08,4.98,18.25,13.01,15.4,26.75C-475.12-59.3-483.76-47.53-498.4-46.23z"/>
		<path d="M-272.05-64.65c-4.37-1.02-10.5-1.53-10.9-9.27c-0.31-6.11,4.48-11.38,10.28-11.58c6.04-0.2,12.87,5.16,12.92,10.14
			C-259.69-69.71-264.89-64.66-272.05-64.65z"/>
		<path class="st0" d="M-371.15-124.11c-1.02,1.63-2.19,4.8-4.44,6.75c-3.47,3.02-6.79,2.19-7.42-2.8c-0.4-3.15-0.4-6.63,0.57-9.59
			c0.89-2.71,3.31-4.93,5.06-7.37c1.83,2.47,3.82,4.84,5.41,7.44C-371.32-128.61-371.53-127.04-371.15-124.11z"/>
	</g>
</g>
</svg>
