<?xml version="1.0" encoding="UTF-8"?>
<!-- Generator: Adobe Illustrator 21.0.0, SVG Export Plug-In . SVG Version: 6.00 Build 0)  -->
<svg version="1.1" id="Layer_1" xmlns="http://www.w3.org/2000/svg" xmlns:xlink="http://www.w3.org/1999/xlink" x="0px" y="0px" viewBox="0 0 204 24" style="enable-background:new 0 0 204 24;" xml:space="preserve">
<style type="text/css">
	.st0{fill:#e56942;}
</style>
<g>
	<g>
		<g>
			<polygon class="st0" points="7.5,0 7.5,21.9 20.2,0    "/>
		</g>
		<g>
			<polygon class="st0" points="8.5,22.5 27.4,11.5 21.1,0.5    "/>
		</g>
		<g>
			<polygon class="st0" points="6.4,1 0,12 6.4,23    "/>
		</g>
		<g>
			<polygon class="st0" points="34.6,24 28,12.5 8,24 20.8,24 20.8,24    "/>
		</g>
	</g>
	<g>
		<path class="st0" d="M56.9,22c-2.2,0-3.9-0.8-5.4-2.5c-1.3-1.7-2.1-4.2-2.1-7.7c0-3.1,0.8-5.5,2.2-7.3C53.1,2.9,54.9,2,56.9,2    c1.7,0,3.1,0.6,4.4,1.8c1.1,1.1,1.9,2.7,2.2,4.6l-2.2,0.3c-0.2-1.3-0.7-2.5-1.3-3.4c-0.7-0.9-1.9-1.2-3.1-1.2    c-1.6,0-2.7,0.7-3.6,1.9c-0.9,1.3-1.3,3.2-1.3,5.8c0,2.7,0.4,4.7,1.3,6c0.9,1.3,2.1,2.1,3.6,2.1c1.3,0,2.5-0.6,3.2-1.6    c0.8-1,1.2-2.5,1.1-4.1h-4.9v-2.1h7.2v2c0,2.5-0.6,4.5-1.9,5.8C60.5,21.4,58.8,22,56.9,22z"/>
		<path class="st0" d="M69,21.6V2.4h6c2,0,3.6,0.6,4.7,1.5c1.1,0.9,1.7,2.5,1.7,4.2c0,1.6-0.4,2.8-1.3,3.8c-0.9,0.9-2,1.6-3.5,1.8    l4.4,8h-2.6l-4.1-7.9h-3v7.9C71.3,21.6,69,21.6,69,21.6z M71.3,11.8h3.6c1.3,0,2.3-0.2,3.1-0.9c0.8-0.6,1.1-1.6,1.1-2.8    c0-2.5-1.5-3.6-4.4-3.6h-3.6L71.3,11.8L71.3,11.8z"/>
		<path class="st0" d="M98.5,21.6l-1.3-3.8h-7.9l-1.1,3.8h-2.5L92,2.3h2.5l6.4,19.3H98.5z M96.4,15.9L93.2,5.4l0,0l-3.4,10.5H96.4z"/>
		<path class="st0" d="M108.8,21.6v-8.2l-6.4-11.2h2.6l4.9,8.9l0,0l4.9-8.9h2.6l-6.4,11.2v8.2L108.8,21.6L108.8,21.6z"/>
		<path class="st0" d="M144.4,21.6l-1.3-3.8h-7.9l-1.1,3.8h-2.5l6.4-19.3h2.5l6.4,19.3C146.7,21.6,144.4,21.6,144.4,21.6z     M142.4,15.9l-3.2-10.5l0,0l-3.4,10.5H142.4z"/>
		<path class="st0" d="M151.9,21.6V2.4h6c2,0,3.6,0.6,4.7,1.5c1.1,0.9,1.7,2.5,1.7,4.2c0,1.6-0.4,2.8-1.3,3.8    c-0.9,0.9-2,1.6-3.5,1.8l4.4,8h-2.6l-4.1-7.9h-2.9v7.9C154.2,21.6,151.9,21.6,151.9,21.6z M154.2,11.8h3.6c1.3,0,2.3-0.2,3.1-0.9    c0.8-0.6,1.1-1.6,1.1-2.8c0-2.5-1.5-3.6-4.4-3.6h-3.5C154.2,4.4,154.2,11.8,154.2,11.8z"/>
		<path class="st0" d="M170.2,21.6V2.4h11.4v2.1h-9.1v6.3h8.3v2.1h-8.3v6.8h9.1v2.1C181.6,21.6,170.2,21.6,170.2,21.6z"/>
		<path class="st0" d="M198,21.6l-1.3-3.8h-7.8l-1.1,3.8h-2.5l6.4-19.3h2.5l6.4,19.3H198z M196.1,15.9l-3.2-10.5l0,0l-3.4,10.5    H196.1z"/>
	</g>
</g>
</svg>
